<svg xmlns="http://www.w3.org/2000/svg" width="640" height="360" viewBox="0 0 640 360"><defs><style>.a{fill:#fff;}.b,.i{fill:#fee8b4;}.c,.g{fill:#a9e2ea;}.d,.h{fill:#d4f2c4;}.e{fill:none;}.e,.g,.h,.i{stroke:#404040;stroke-miterlimit:10;}.f{fill:#404040;}</style></defs><rect class="a" width="640" height="360"/><ellipse class="b" cx="142.531" cy="135.012" rx="37.5" ry="64.941"/><path class="c" d="M105.031,135.013a74.951,74.951,0,0,1,37.5-64.942,75,75,0,1,0,0,129.883A74.95,74.95,0,0,1,105.031,135.013Z"/><path class="d" d="M180.031,60.013a74.615,74.615,0,0,0-37.5,10.058,74.983,74.983,0,0,1,0,129.883,75,75,0,1,0,37.5-139.941Z"/><circle class="e" cx="105.031" cy="135.013" r="75"/><circle class="e" cx="180.031" cy="135.013" r="75"/><path class="f" d="M95.513,51.884c-.093-.093-.139-.167-.139-.22a1.659,1.659,0,0,1,.069-.339.964.964,0,0,1,.11-.3l.08-.06h.281a2.425,2.425,0,0,0,2.039-1q.12-.12,3.63-6.11t3.55-6.05a.43.43,0,0,1,.19-.21,2.006,2.006,0,0,1,.45-.03h.34a1.1,1.1,0,0,1,.12.2l.56,6.46q.561,6.461.6,6.52c.066.147.5.22,1.3.22.147,0,.25,0,.31.01a.274.274,0,0,1,.141.05.176.176,0,0,1,.049.14,2.08,2.08,0,0,1-.06.28,1.2,1.2,0,0,1-.11.37c-.033.047-.123.07-.27.07q-.36,0-1.19-.019t-1.33-.021q-1.88,0-2.46.04h-.24a.483.483,0,0,1-.13-.17,1.88,1.88,0,0,1,.05-.37,1.6,1.6,0,0,1,.12-.32l.08-.06h.4q1.08-.039,1.28-.34l-.24-3h-4.76l-.68,1.161a13.617,13.617,0,0,0-.739,1.3.67.67,0,0,0-.081.3q0,.5.92.58c.253,0,.38.067.38.2a.951.951,0,0,1-.06.28,1.07,1.07,0,0,1-.12.36c-.039.054-.126.08-.26.08-.227,0-.587-.007-1.08-.019s-.866-.021-1.12-.021q-1.42,0-1.82.04Zm9.48-5.2q0-.221-.25-3.12t-.27-2.92l-.54.86q-.32.542-1.26,2.14l-1.8,3.04,2.059.02Q104.994,46.7,104.993,46.684Z"/><path class="f" d="M178.835,39.324a.1.1,0,0,0-.019-.051.1.1,0,0,0-.06-.04.354.354,0,0,1-.08-.03.414.414,0,0,0-.12-.03,1.092,1.092,0,0,0-.14-.01h-.16a1.062,1.062,0,0,1-.171-.01,1.507,1.507,0,0,0-.189-.01h-.2a4.4,4.4,0,0,1-.58-.02.18.18,0,0,1-.14-.12.674.674,0,0,1,.02-.36q.1-.36.18-.4.019-.021,2.6-.021,5.18,0,5.46.04a3.782,3.782,0,0,1,2.16.96,2.384,2.384,0,0,1,.8,1.78,2.7,2.7,0,0,1-.38,1.361,4.275,4.275,0,0,1-1.41,1.449,5.731,5.731,0,0,1-2.031.87l-.2.061a3.839,3.839,0,0,1,2.13.919,2.392,2.392,0,0,1,.81,1.84,3.711,3.711,0,0,1-1.32,2.7,5.852,5.852,0,0,1-3.66,1.661q-.141.018-4.22.019-4,0-4.061-.04a.19.19,0,0,1-.079-.16,1,1,0,0,1,.04-.28q.1-.38.2-.42a1.487,1.487,0,0,1,.3-.02h.12q.54,0,1.2-.06a.528.528,0,0,0,.38-.24q.06-.079,1.44-5.56T178.835,39.324Zm6.141,7.979a2.246,2.246,0,0,0-.47-1.46,1.806,1.806,0,0,0-1.19-.68q-.12-.019-1.66-.02-2.361,0-2.38.02,0,.041-.35,1.46t-.69,2.82l-.361,1.4c0,.054.081.083.241.09s.7.017,1.62.03q1.779,0,1.92-.02a3.763,3.763,0,0,0,2.31-1.159A3.4,3.4,0,0,0,184.976,47.3Zm1.08-6.3a1.918,1.918,0,0,0-.35-1.16,1.673,1.673,0,0,0-.93-.64q-.141-.041-1.84-.06c-.267,0-.547,0-.84.01s-.527.01-.7.01h-.26a.453.453,0,0,0-.36.14q-.06.081-.671,2.521t-.629,2.579h1.62q1.62,0,1.86-.039a3.819,3.819,0,0,0,1.55-.651,3.679,3.679,0,0,0,1.13-1.23A3.05,3.05,0,0,0,186.056,41Z"/><rect class="g" x="60" y="240" width="16" height="16"/><rect class="h" x="60" y="270" width="16" height="16"/><rect class="i" x="60" y="300" width="16" height="16"/><path class="f" d="M92.005,243.44a.1.1,0,0,0-.02-.051.1.1,0,0,0-.06-.04.429.429,0,0,1-.08-.029.38.38,0,0,0-.12-.031,1.267,1.267,0,0,0-.14-.009h-.16a1.037,1.037,0,0,1-.17-.011,1.537,1.537,0,0,0-.19-.01h-.2a3.374,3.374,0,0,1-.6-.029.213.213,0,0,1-.14-.131.732.732,0,0,1,.02-.279,1.236,1.236,0,0,1,.18-.441q.06-.039,3.88-.04,3.8.021,4.06.061a4.219,4.219,0,0,1,1.97.83,2.893,2.893,0,0,1,1.03,1.649,4.175,4.175,0,0,1,.02.521,3.436,3.436,0,0,1-.04.659,4.283,4.283,0,0,1-1.28,2.16,6.409,6.409,0,0,1-3.56,1.721q-.139.018-2.1.04h-1.9l-.6,2.38q-.6,2.32-.6,2.46c0,.092.02.146.06.16a5.681,5.681,0,0,0,1.1.1h.62a.74.74,0,0,1,.12.22,1.331,1.331,0,0,1-.14.6.441.441,0,0,1-.32.1q-.34,0-1.21-.019t-1.53-.021q-.641,0-1.47.01c-.553.007-.937.011-1.15.011-.173,0-.28-.033-.32-.1a.339.339,0,0,1-.04-.1,2.147,2.147,0,0,1,.06-.281c.053-.213.107-.337.16-.37a1.193,1.193,0,0,1,.46-.05q.54,0,1.2-.06a.528.528,0,0,0,.38-.239q.06-.081,1.44-5.561T92.005,243.44Zm7.16,1.479a1.333,1.333,0,0,0-.44-1.11,2.938,2.938,0,0,0-1.26-.51q-.139-.02-1.6-.04c-.227,0-.46,0-.7.01s-.433.011-.58.011h-.24a.431.431,0,0,0-.36.179q-.04.12-.39,1.54t-.69,2.76q-.341,1.341-.36,1.36a12.114,12.114,0,0,0,1.62.041q1.68-.021,1.84-.041a3.433,3.433,0,0,0,2.06-.959,4.312,4.312,0,0,0,.9-1.941A5.836,5.836,0,0,0,99.165,244.919Z"/><path class="f" d="M107.765,260.82c0,.12-.12.179-.36.179h-.26l-.56-.48q-3.6-3.281-3.6-9.52a16.114,16.114,0,0,1,.58-4.46,10.782,10.782,0,0,1,3.02-5.059c.093-.08.2-.171.32-.271s.2-.17.24-.21h.26a.475.475,0,0,1,.3.06.173.173,0,0,1,.06.12c0,.054-.074.153-.22.3q-3.1,3.279-3.1,9.519t3.1,9.52C107.691,260.666,107.765,260.766,107.765,260.82Z"/><path class="f" d="M109.725,256a.38.38,0,0,1-.14-.219,1.692,1.692,0,0,1,.07-.34.937.937,0,0,1,.11-.3l.08-.06h.28a2.427,2.427,0,0,0,2.04-1q.12-.12,3.63-6.11t3.55-6.05a.426.426,0,0,1,.19-.21,2.006,2.006,0,0,1,.45-.03h.34a1.137,1.137,0,0,1,.12.2l.56,6.46q.56,6.46.6,6.521.1.219,1.3.219c.146,0,.25,0,.31.01a.279.279,0,0,1,.14.05.173.173,0,0,1,.05.141,2.116,2.116,0,0,1-.06.279,1.231,1.231,0,0,1-.11.37c-.034.047-.124.07-.27.07q-.36,0-1.19-.019t-1.33-.021q-1.881,0-2.46.04h-.24a.461.461,0,0,1-.13-.17,1.8,1.8,0,0,1,.05-.37,1.6,1.6,0,0,1,.12-.32l.08-.06h.4q1.08-.039,1.28-.339l-.24-3h-4.76l-.68,1.16a13.994,13.994,0,0,0-.74,1.3.664.664,0,0,0-.08.3c0,.333.307.528.92.58.253,0,.38.067.38.2a.952.952,0,0,1-.06.279,1.061,1.061,0,0,1-.12.36c-.04.054-.127.08-.26.08q-.341,0-1.08-.019c-.493-.014-.867-.021-1.12-.021q-1.421,0-1.82.04Zm9.48-5.2q0-.219-.25-3.12t-.27-2.92l-.54.86q-.321.541-1.26,2.14l-1.8,3.04,2.06.021Q119.2,250.82,119.205,250.8Z"/><path class="f" d="M125.085,241.019l.08-.02h.44l.56.481q3.6,3.279,3.6,9.519a15.816,15.816,0,0,1-.58,4.441,10.788,10.788,0,0,1-3.02,5.079c-.094.08-.2.171-.32.27s-.2.17-.24.21h-.24a.745.745,0,0,1-.31-.04c-.047-.026-.07-.093-.07-.2.013-.014.086-.1.22-.26q3.1-3.219,3.1-9.5t-3.1-9.5c-.134-.16-.207-.246-.22-.259A.236.236,0,0,1,125.085,241.019Z"/><path class="f" d="M92.005,273.44a.1.1,0,0,0-.02-.051.1.1,0,0,0-.06-.04.429.429,0,0,1-.08-.029.38.38,0,0,0-.12-.031,1.267,1.267,0,0,0-.14-.009h-.16a1.037,1.037,0,0,1-.17-.011,1.537,1.537,0,0,0-.19-.01h-.2a3.374,3.374,0,0,1-.6-.029.213.213,0,0,1-.14-.131.732.732,0,0,1,.02-.279,1.236,1.236,0,0,1,.18-.441q.06-.039,3.88-.04,3.8.021,4.06.061a4.219,4.219,0,0,1,1.97.83,2.893,2.893,0,0,1,1.03,1.649,4.175,4.175,0,0,1,.02.521,3.436,3.436,0,0,1-.04.659,4.283,4.283,0,0,1-1.28,2.16,6.409,6.409,0,0,1-3.56,1.721q-.139.018-2.1.04h-1.9l-.6,2.38q-.6,2.32-.6,2.46c0,.092.02.146.06.16a5.681,5.681,0,0,0,1.1.1h.62a.74.74,0,0,1,.12.22,1.331,1.331,0,0,1-.14.6.441.441,0,0,1-.32.1q-.34,0-1.21-.019t-1.53-.021q-.641,0-1.47.01c-.553.007-.937.011-1.15.011-.173,0-.28-.033-.32-.1a.339.339,0,0,1-.04-.1,2.147,2.147,0,0,1,.06-.281c.053-.213.107-.337.16-.37a1.193,1.193,0,0,1,.46-.05q.54,0,1.2-.06a.528.528,0,0,0,.38-.239q.06-.081,1.44-5.561T92.005,273.44Zm7.16,1.479a1.333,1.333,0,0,0-.44-1.11,2.938,2.938,0,0,0-1.26-.51q-.139-.019-1.6-.04c-.227,0-.46,0-.7.01s-.433.011-.58.011h-.24a.431.431,0,0,0-.36.179q-.04.12-.39,1.54t-.69,2.76q-.341,1.341-.36,1.36a12.114,12.114,0,0,0,1.62.041q1.68-.021,1.84-.041a3.433,3.433,0,0,0,2.06-.959,4.312,4.312,0,0,0,.9-1.941A5.836,5.836,0,0,0,99.165,274.919Z"/><path class="f" d="M107.765,290.82c0,.12-.12.179-.36.179h-.26l-.56-.48q-3.6-3.281-3.6-9.52a16.114,16.114,0,0,1,.58-4.46,10.782,10.782,0,0,1,3.02-5.059c.093-.08.2-.171.32-.271s.2-.17.24-.21h.26a.475.475,0,0,1,.3.06.173.173,0,0,1,.06.12c0,.054-.074.153-.22.3q-3.1,3.279-3.1,9.519t3.1,9.52C107.691,290.666,107.765,290.766,107.765,290.82Z"/><path class="f" d="M114.645,273.44a.1.1,0,0,0-.02-.051.1.1,0,0,0-.06-.04.4.4,0,0,1-.08-.029.38.38,0,0,0-.12-.031,1.267,1.267,0,0,0-.14-.009h-.16a1.029,1.029,0,0,1-.17-.011,1.537,1.537,0,0,0-.19-.01h-.2a4.708,4.708,0,0,1-.58-.019.185.185,0,0,1-.14-.121.674.674,0,0,1,.02-.36q.1-.36.18-.4.02-.021,2.6-.021,5.18,0,5.46.04a3.778,3.778,0,0,1,2.16.96,2.384,2.384,0,0,1,.8,1.78,2.7,2.7,0,0,1-.38,1.361,4.265,4.265,0,0,1-1.41,1.449,5.7,5.7,0,0,1-2.03.87l-.2.061a3.832,3.832,0,0,1,2.13.92,2.389,2.389,0,0,1,.81,1.839,3.715,3.715,0,0,1-1.32,2.7,5.856,5.856,0,0,1-3.66,1.66q-.139.019-4.22.019-4,0-4.06-.04a.187.187,0,0,1-.08-.16,1.008,1.008,0,0,1,.04-.28q.1-.38.2-.42a1.487,1.487,0,0,1,.3-.02h.12q.54,0,1.2-.06a.53.53,0,0,0,.38-.239q.06-.081,1.44-5.561T114.645,273.44Zm6.14,7.979a2.246,2.246,0,0,0-.47-1.46,1.8,1.8,0,0,0-1.19-.679q-.12-.021-1.66-.021-2.361,0-2.38.021,0,.039-.35,1.46t-.69,2.819l-.36,1.4c0,.054.08.083.24.09s.7.017,1.62.03q1.779,0,1.92-.02a3.758,3.758,0,0,0,2.31-1.159A3.4,3.4,0,0,0,120.785,281.419Zm1.08-6.3a1.92,1.92,0,0,0-.35-1.16,1.666,1.666,0,0,0-.93-.639c-.094-.028-.707-.047-1.84-.061-.267,0-.547,0-.84.01s-.527.011-.7.011h-.26a.45.45,0,0,0-.36.139q-.06.081-.67,2.521t-.63,2.579h1.62q1.62,0,1.86-.039a3.813,3.813,0,0,0,1.55-.651,3.67,3.67,0,0,0,1.13-1.23A3.05,3.05,0,0,0,121.865,275.119Z"/><path class="f" d="M125.265,271.019l.08-.02h.44l.56.481q3.6,3.279,3.6,9.519a15.816,15.816,0,0,1-.58,4.441,10.788,10.788,0,0,1-3.02,5.079c-.094.08-.2.171-.32.27s-.2.17-.24.21h-.24a.745.745,0,0,1-.31-.04c-.047-.026-.07-.093-.07-.2.013-.014.086-.1.22-.26q3.1-3.219,3.1-9.5t-3.1-9.5c-.134-.16-.207-.246-.22-.259A.236.236,0,0,1,125.265,271.019Z"/><path class="f" d="M92.005,303.441a.1.1,0,0,0-.02-.051.1.1,0,0,0-.06-.04.4.4,0,0,1-.08-.029.38.38,0,0,0-.12-.031,1.267,1.267,0,0,0-.14-.009h-.16a1.037,1.037,0,0,1-.17-.011,1.544,1.544,0,0,0-.191-.01h-.2a3.358,3.358,0,0,1-.6-.029.21.21,0,0,1-.14-.131.712.712,0,0,1,.02-.279,1.236,1.236,0,0,1,.18-.441q.06-.039,3.88-.04,3.8.021,4.06.061a4.219,4.219,0,0,1,1.97.83,2.9,2.9,0,0,1,1.03,1.649,4.175,4.175,0,0,1,.02.521,3.436,3.436,0,0,1-.04.659,4.283,4.283,0,0,1-1.28,2.16,6.409,6.409,0,0,1-3.56,1.721q-.139.018-2.1.04h-1.9l-.6,2.38q-.6,2.321-.6,2.46c0,.092.02.146.06.16a5.681,5.681,0,0,0,1.1.1h.62a.751.751,0,0,1,.119.22,1.33,1.33,0,0,1-.139.6.443.443,0,0,1-.32.1q-.34,0-1.21-.019c-.581-.014-1.09-.021-1.53-.021s-.917,0-1.47.01-.937.011-1.15.011c-.174,0-.28-.033-.32-.1a.35.35,0,0,1-.04-.1,2.147,2.147,0,0,1,.06-.281c.053-.213.107-.337.16-.37a1.19,1.19,0,0,1,.459-.05q.541,0,1.2-.06a.53.53,0,0,0,.38-.239q.06-.081,1.44-5.561T92.005,303.441Zm7.16,1.479a1.333,1.333,0,0,0-.44-1.11,2.926,2.926,0,0,0-1.26-.51q-.141-.02-1.6-.04c-.227,0-.46,0-.7.01s-.434.011-.58.011h-.24a.431.431,0,0,0-.36.179q-.04.12-.39,1.54t-.69,2.76q-.341,1.341-.36,1.36a12.114,12.114,0,0,0,1.62.041q1.68-.021,1.84-.041a3.427,3.427,0,0,0,2.059-.959,4.3,4.3,0,0,0,.9-1.941A5.836,5.836,0,0,0,99.165,304.92Z"/><path class="f" d="M107.765,320.821c0,.12-.12.179-.361.179h-.259l-.56-.48q-3.6-3.28-3.6-9.52a16.152,16.152,0,0,1,.58-4.46,10.792,10.792,0,0,1,3.021-5.059c.093-.08.2-.171.319-.271s.2-.17.241-.21h.259a.478.478,0,0,1,.3.06.173.173,0,0,1,.06.12c0,.054-.074.153-.22.3q-3.1,3.279-3.1,9.519t3.1,9.52C107.691,320.667,107.765,320.767,107.765,320.821Z"/><path class="f" d="M109.725,316a.38.38,0,0,1-.14-.219,1.664,1.664,0,0,1,.069-.34.928.928,0,0,1,.111-.3l.08-.06h.28a2.425,2.425,0,0,0,2.039-1q.12-.12,3.631-6.11t3.55-6.05a.43.43,0,0,1,.189-.21,2.013,2.013,0,0,1,.45-.03h.34a1.137,1.137,0,0,1,.12.2l.561,6.46q.56,6.461.6,6.521.1.219,1.3.219c.147,0,.25,0,.311.01a.275.275,0,0,1,.139.05.17.17,0,0,1,.05.141,2.027,2.027,0,0,1-.059.279,1.192,1.192,0,0,1-.111.37c-.033.047-.123.07-.269.07q-.36,0-1.191-.019t-1.33-.021q-1.879,0-2.46.04h-.24a.474.474,0,0,1-.13-.17,1.88,1.88,0,0,1,.05-.37,1.74,1.74,0,0,1,.12-.32l.08-.06h.4q1.078-.039,1.28-.339l-.24-3h-4.76l-.681,1.16a14.106,14.106,0,0,0-.739,1.3.664.664,0,0,0-.08.3c0,.333.307.528.92.58.253,0,.38.067.38.2a.96.96,0,0,1-.061.279,1.061,1.061,0,0,1-.12.36c-.039.054-.126.08-.26.08-.226,0-.587-.006-1.08-.019s-.866-.021-1.12-.021q-1.419,0-1.819.04Zm9.479-5.2q0-.219-.25-3.12t-.269-2.92l-.54.86q-.321.541-1.26,2.14l-1.8,3.04,2.06.021Q119.2,310.821,119.2,310.8Z"/><path class="f" d="M130.385,316.42a.436.436,0,0,1-.4-.28V310.4a25.874,25.874,0,0,1,.1-2.96.16.16,0,0,0,.019-.061,3.541,3.541,0,0,1,.8-1.5,5.376,5.376,0,0,1,1.971-1.34,6.871,6.871,0,0,1,2.649-.5,7.09,7.09,0,0,1,2.96.6,4.5,4.5,0,0,1,1.981,1.62,3.641,3.641,0,0,1,.62,1.641q.02.12.019,4.219v4.02a.437.437,0,0,1-.4.3.49.49,0,0,1-.38-.261q0-1.38-.019-4.14t-.021-4.139a3.289,3.289,0,0,0-.819-1.6,4.181,4.181,0,0,0-1.681-1.069,6.35,6.35,0,0,0-2.22-.391,5.225,5.225,0,0,0-3.96,1.481,2.986,2.986,0,0,0-.8,1.66q-.021.1-.021,4.159v4A.434.434,0,0,1,130.385,316.42Z"/><path class="f" d="M152.984,303.441a.1.1,0,0,0-.08-.091.456.456,0,0,1-.08-.029.366.366,0,0,0-.12-.031,1.267,1.267,0,0,0-.14-.009h-.16a1.045,1.045,0,0,1-.17-.011,1.525,1.525,0,0,0-.19-.01h-.2a4.7,4.7,0,0,1-.58-.019.184.184,0,0,1-.141-.121.679.679,0,0,1,.021-.36c.066-.24.126-.373.179-.4q.021-.021,2.6-.021,5.179,0,5.46.04a3.775,3.775,0,0,1,2.159.96,2.385,2.385,0,0,1,.8,1.78,2.7,2.7,0,0,1-.38,1.361,4.275,4.275,0,0,1-1.41,1.449,5.71,5.71,0,0,1-2.031.87l-.2.061a3.832,3.832,0,0,1,2.13.92,2.389,2.389,0,0,1,.811,1.839,3.716,3.716,0,0,1-1.321,2.7,5.854,5.854,0,0,1-3.66,1.66q-.139.02-4.22.019-4,0-4.06-.04a.188.188,0,0,1-.079-.16,1.008,1.008,0,0,1,.04-.28c.066-.253.133-.393.2-.42a1.5,1.5,0,0,1,.3-.02h.119c.36,0,.761-.02,1.2-.06a.526.526,0,0,0,.38-.239q.06-.081,1.44-5.561T152.984,303.441Zm6.14,7.979a2.24,2.24,0,0,0-.47-1.46,1.8,1.8,0,0,0-1.189-.679q-.12-.021-1.66-.021-2.363,0-2.38.021,0,.039-.351,1.46t-.689,2.819l-.361,1.4c0,.054.08.083.241.09s.7.017,1.62.03q1.779,0,1.92-.02a3.758,3.758,0,0,0,2.309-1.159A3.4,3.4,0,0,0,159.124,311.42Zm1.08-6.3a1.914,1.914,0,0,0-.35-1.16,1.661,1.661,0,0,0-.929-.639c-.094-.028-.707-.047-1.841-.061-.267,0-.547,0-.84.01s-.526.011-.7.011h-.26a.449.449,0,0,0-.359.139q-.06.081-.671,2.521t-.63,2.579h1.62q1.62,0,1.86-.039a3.808,3.808,0,0,0,1.55-.651,3.649,3.649,0,0,0,1.13-1.23A3.05,3.05,0,0,0,160.2,305.12Z"/><path class="f" d="M163.6,301.02l.081-.02h.44c.093.08.279.241.56.481q3.6,3.279,3.6,9.519a15.779,15.779,0,0,1-.58,4.441,10.778,10.778,0,0,1-3.019,5.079c-.094.08-.2.171-.321.27s-.2.17-.239.21h-.24a.751.751,0,0,1-.311-.04c-.047-.026-.069-.093-.069-.2.013-.014.086-.1.22-.26q3.1-3.219,3.1-9.5t-3.1-9.5c-.134-.16-.207-.246-.22-.259A.237.237,0,0,1,163.6,301.02Z"/><path class="f" d="M328.736,172.135a.111.111,0,0,0-.019-.051.106.106,0,0,0-.061-.04.388.388,0,0,1-.08-.029.369.369,0,0,0-.12-.03,1.08,1.08,0,0,0-.14-.01h-.16a1.045,1.045,0,0,1-.17-.011,1.537,1.537,0,0,0-.19-.01h-.2a3.271,3.271,0,0,1-.6-.029.21.21,0,0,1-.14-.131.755.755,0,0,1,.02-.279,1.209,1.209,0,0,1,.181-.44q.06-.04,3.88-.04,3.8.02,4.059.06a4.227,4.227,0,0,1,1.971.83,2.9,2.9,0,0,1,1.029,1.65,3.9,3.9,0,0,1,.021.52,3.429,3.429,0,0,1-.04.659,4.281,4.281,0,0,1-1.281,2.16,6.4,6.4,0,0,1-3.559,1.721q-.141.019-2.1.04h-1.9l-.6,2.38q-.6,2.32-.6,2.46c0,.093.019.146.059.16a5.745,5.745,0,0,0,1.1.1h.62a.739.739,0,0,1,.119.219,1.328,1.328,0,0,1-.14.6.441.441,0,0,1-.32.1q-.34,0-1.21-.02t-1.529-.02c-.428,0-.917,0-1.471.009s-.937.011-1.149.011c-.174,0-.281-.033-.321-.1a.374.374,0,0,1-.04-.1,2.25,2.25,0,0,1,.061-.28c.053-.213.106-.337.159-.37a1.175,1.175,0,0,1,.46-.05c.36,0,.761-.021,1.2-.061a.526.526,0,0,0,.38-.239q.06-.081,1.44-5.561T328.736,172.135Zm7.16,1.48a1.337,1.337,0,0,0-.44-1.111,2.938,2.938,0,0,0-1.26-.51c-.093-.012-.627-.026-1.6-.04-.228,0-.46,0-.7.01s-.433.011-.58.011h-.24a.428.428,0,0,0-.359.18c-.028.08-.157.593-.391,1.54s-.463,1.867-.689,2.759-.348,1.347-.361,1.361a12.5,12.5,0,0,0,1.62.04q1.681-.021,1.84-.04a3.431,3.431,0,0,0,2.06-.96,4.312,4.312,0,0,0,.9-1.941A5.829,5.829,0,0,0,335.9,173.615Z"/><path class="f" d="M344.5,189.515q0,.18-.36.18h-.26l-.56-.481q-3.6-3.279-3.6-9.519a16.109,16.109,0,0,1,.58-4.46,10.781,10.781,0,0,1,3.02-5.06c.093-.08.2-.171.32-.27s.2-.17.24-.21h.26a.482.482,0,0,1,.3.059.171.171,0,0,1,.059.12c0,.054-.073.154-.22.3q-3.1,3.28-3.1,9.52t3.1,9.519C344.423,189.362,344.5,189.461,344.5,189.515Z"/><path class="f" d="M346.456,184.7c-.094-.093-.14-.167-.14-.22a1.692,1.692,0,0,1,.07-.34.976.976,0,0,1,.11-.3l.08-.059h.28a2.427,2.427,0,0,0,2.04-1q.12-.12,3.63-6.111t3.55-6.049c.067-.121.13-.19.19-.21a1.921,1.921,0,0,1,.45-.031h.34a1.084,1.084,0,0,1,.12.2l.56,6.46q.559,6.459.6,6.52.1.22,1.3.22c.146,0,.25,0,.31.01a.267.267,0,0,1,.14.049.176.176,0,0,1,.05.141,2.116,2.116,0,0,1-.06.279,1.231,1.231,0,0,1-.11.37c-.033.047-.123.071-.27.071q-.36,0-1.19-.02t-1.33-.02q-1.879,0-2.46.04h-.24a.483.483,0,0,1-.13-.17,1.8,1.8,0,0,1,.05-.37,1.616,1.616,0,0,1,.12-.321l.08-.059h.4q1.08-.041,1.28-.34l-.24-3h-4.76l-.68,1.16a13.994,13.994,0,0,0-.74,1.3.678.678,0,0,0-.08.3q0,.5.92.58c.253,0,.38.066.38.2a.952.952,0,0,1-.06.279,1.07,1.07,0,0,1-.12.361.318.318,0,0,1-.26.08q-.341,0-1.08-.02c-.494-.014-.867-.02-1.12-.02q-1.421,0-1.82.04Zm9.48-5.2q0-.219-.25-3.12t-.27-2.92l-.54.861q-.321.54-1.26,2.139l-1.8,3.04,2.06.021Q355.936,179.515,355.936,179.494Z"/><path class="f" d="M368.4,189.675a.437.437,0,0,1-.4-.28v-9.72l.02-9.721c.133-.172.26-.259.38-.259a.437.437,0,0,1,.4.3v19.4A.438.438,0,0,1,368.4,189.675Z"/><path class="f" d="M381.936,172.135a.106.106,0,0,0-.08-.091.368.368,0,0,1-.08-.029.384.384,0,0,0-.12-.03,1.08,1.08,0,0,0-.14-.01h-.16a1.029,1.029,0,0,1-.17-.011,1.537,1.537,0,0,0-.19-.01h-.2a4.5,4.5,0,0,1-.58-.019.185.185,0,0,1-.14-.12.678.678,0,0,1,.02-.361c.066-.24.127-.373.18-.4q.019-.021,2.6-.02,5.18,0,5.46.04a3.772,3.772,0,0,1,2.16.96,2.381,2.381,0,0,1,.8,1.78,2.7,2.7,0,0,1-.38,1.36,4.257,4.257,0,0,1-1.41,1.449,5.691,5.691,0,0,1-2.03.87l-.2.061a3.839,3.839,0,0,1,2.13.92,2.389,2.389,0,0,1,.81,1.84,3.713,3.713,0,0,1-1.32,2.7,5.856,5.856,0,0,1-3.66,1.66q-.139.019-4.22.02-4,0-4.06-.04a.189.189,0,0,1-.08-.161,1.013,1.013,0,0,1,.04-.28c.066-.253.133-.392.2-.42a1.6,1.6,0,0,1,.3-.019h.12q.54,0,1.2-.061a.528.528,0,0,0,.38-.239q.06-.081,1.44-5.561T381.936,172.135Zm6.14,7.98a2.244,2.244,0,0,0-.47-1.46,1.8,1.8,0,0,0-1.19-.68q-.12-.021-1.66-.021-2.359,0-2.38.021,0,.039-.35,1.46t-.69,2.819l-.36,1.4c0,.053.08.083.24.089s.7.017,1.62.031q1.779,0,1.92-.021a3.752,3.752,0,0,0,2.31-1.159A3.4,3.4,0,0,0,388.076,180.115Zm1.08-6.3a1.918,1.918,0,0,0-.35-1.16,1.66,1.66,0,0,0-.93-.64q-.141-.04-1.84-.061c-.266,0-.547,0-.84.01s-.527.011-.7.011h-.26a.453.453,0,0,0-.36.14q-.06.079-.67,2.52t-.63,2.579h1.62q1.62,0,1.86-.039a3.811,3.811,0,0,0,1.55-.65,3.663,3.663,0,0,0,1.13-1.231A3.05,3.05,0,0,0,389.156,173.815Z"/><path class="f" d="M392.556,169.714l.08-.019h.44l.56.48q3.6,3.28,3.6,9.52a15.772,15.772,0,0,1-.58,4.44,10.773,10.773,0,0,1-3.019,5.079c-.094.08-.2.171-.321.271s-.2.17-.239.21h-.24a.769.769,0,0,1-.311-.04q-.069-.041-.069-.2c.013-.013.086-.1.22-.259q3.1-3.22,3.1-9.5t-3.1-9.5c-.134-.16-.207-.246-.22-.26A.236.236,0,0,1,392.556,169.714Z"/><path class="f" d="M405.256,177.754a.435.435,0,0,1,.28-.4h12.74a.437.437,0,0,1,.3.4.455.455,0,0,1-.28.381l-6.36.02h-6.36A.4.4,0,0,1,405.256,177.754Zm0,3.881a.4.4,0,0,1,.32-.4H418.3a.908.908,0,0,0,.09.07.792.792,0,0,1,.1.08.322.322,0,0,1,.06.1.376.376,0,0,1,.03.15.437.437,0,0,1-.3.4h-12.74A.435.435,0,0,1,405.256,181.635Z"/><path class="f" d="M435.784,159.5a.112.112,0,0,0-.02-.05.1.1,0,0,0-.06-.04.354.354,0,0,1-.08-.03.414.414,0,0,0-.12-.03,1.106,1.106,0,0,0-.141-.01H435.2a1.029,1.029,0,0,1-.17-.011,1.81,1.81,0,0,0-.19-.009h-.2a3.222,3.222,0,0,1-.6-.03.212.212,0,0,1-.141-.13.744.744,0,0,1,.021-.28,1.206,1.206,0,0,1,.18-.44q.06-.04,3.879-.04,3.8.019,4.061.06a4.233,4.233,0,0,1,1.97.83,2.9,2.9,0,0,1,1.03,1.65,4.241,4.241,0,0,1,.019.52,3.365,3.365,0,0,1-.04.66,4.285,4.285,0,0,1-1.279,2.16,6.411,6.411,0,0,1-3.56,1.72q-.141.02-2.1.04h-1.9l-.6,2.38q-.6,2.321-.6,2.46c0,.093.021.147.061.16a5.638,5.638,0,0,0,1.1.1h.62a.716.716,0,0,1,.12.22,1.324,1.324,0,0,1-.14.6.438.438,0,0,1-.32.1q-.34,0-1.21-.02t-1.53-.02q-.641,0-1.47.01t-1.151.01c-.172,0-.279-.033-.319-.1a.34.34,0,0,1-.04-.1,2.149,2.149,0,0,1,.06-.28c.052-.213.106-.337.16-.37a1.189,1.189,0,0,1,.46-.05q.54,0,1.2-.061a.53.53,0,0,0,.38-.239q.06-.079,1.439-5.56T435.784,159.5Zm7.159,1.48a1.333,1.333,0,0,0-.439-1.11,2.924,2.924,0,0,0-1.26-.51q-.141-.02-1.6-.04c-.227,0-.46,0-.7.009s-.432.011-.58.011h-.239a.429.429,0,0,0-.36.18q-.04.12-.39,1.54t-.69,2.76q-.341,1.34-.361,1.36a12.5,12.5,0,0,0,1.62.04c1.12-.014,1.734-.026,1.841-.04a3.436,3.436,0,0,0,2.06-.96,4.307,4.307,0,0,0,.9-1.94A5.832,5.832,0,0,0,442.943,160.979Z"/><path class="f" d="M451.544,176.879q0,.18-.36.18h-.26l-.561-.481q-3.6-3.279-3.6-9.519a16.114,16.114,0,0,1,.58-4.46,10.792,10.792,0,0,1,3.019-5.06c.094-.08.2-.17.321-.27s.2-.17.24-.21h.26a.464.464,0,0,1,.3.06.174.174,0,0,1,.061.12c0,.053-.074.153-.221.3q-3.1,3.281-3.1,9.52t3.1,9.519C451.47,176.726,451.544,176.826,451.544,176.879Z"/><path class="f" d="M453.5,172.059c-.093-.093-.14-.167-.14-.22a1.736,1.736,0,0,1,.071-.34.948.948,0,0,1,.109-.3l.08-.06h.28a2.424,2.424,0,0,0,2.04-1q.12-.12,3.63-6.11t3.55-6.05a.421.421,0,0,1,.19-.21,1.949,1.949,0,0,1,.451-.03h.34a1.1,1.1,0,0,1,.12.2l.559,6.46q.559,6.459.6,6.52.1.22,1.3.22c.146,0,.25,0,.309.01a.271.271,0,0,1,.141.05.176.176,0,0,1,.05.14,2.21,2.21,0,0,1-.061.28,1.242,1.242,0,0,1-.109.37c-.035.047-.124.07-.271.07q-.36,0-1.189-.02t-1.33-.02q-1.881,0-2.46.04h-.241a.45.45,0,0,1-.129-.17,1.757,1.757,0,0,1,.049-.37,1.6,1.6,0,0,1,.12-.32l.081-.06h.4c.721-.026,1.146-.14,1.28-.34l-.24-3h-4.76l-.679,1.16a14.037,14.037,0,0,0-.741,1.3.681.681,0,0,0-.08.3q0,.5.92.58c.253,0,.38.066.38.2a.925.925,0,0,1-.06.28,1.07,1.07,0,0,1-.12.36c-.04.054-.127.08-.259.08-.228,0-.587-.007-1.08-.02s-.868-.02-1.121-.02q-1.421,0-1.82.04Zm9.48-5.2q0-.221-.25-3.12t-.27-2.92l-.54.86q-.32.54-1.26,2.14l-1.8,3.04,2.06.02Q462.984,166.879,462.983,166.859Z"/><path class="f" d="M474.163,172.479a.434.434,0,0,1-.4-.28v-5.74a25.91,25.91,0,0,1,.1-2.96.17.17,0,0,0,.021-.06,3.5,3.5,0,0,1,.8-1.5,5.356,5.356,0,0,1,1.969-1.34,6.885,6.885,0,0,1,2.651-.5,7.078,7.078,0,0,1,2.96.6,4.479,4.479,0,0,1,1.979,1.62,3.6,3.6,0,0,1,.62,1.64q.019.12.021,4.22v4.02a.439.439,0,0,1-.4.3.489.489,0,0,1-.379-.26q0-1.38-.021-4.14t-.02-4.14a3.283,3.283,0,0,0-.82-1.6,4.172,4.172,0,0,0-1.68-1.07,6.379,6.379,0,0,0-2.219-.39,5.224,5.224,0,0,0-3.96,1.48,2.983,2.983,0,0,0-.8,1.66q-.02.1-.02,4.16v4A.436.436,0,0,1,474.163,172.479Z"/><path class="f" d="M496.763,159.5a.1.1,0,0,0-.02-.05.1.1,0,0,0-.059-.04.337.337,0,0,1-.08-.03.432.432,0,0,0-.121-.03,1.08,1.08,0,0,0-.14-.01h-.159a1.042,1.042,0,0,1-.171-.011,1.81,1.81,0,0,0-.19-.009h-.2a4.412,4.412,0,0,1-.58-.02.185.185,0,0,1-.14-.12.674.674,0,0,1,.02-.36c.066-.241.127-.373.181-.4q.018-.02,2.6-.02,5.18,0,5.46.04a3.778,3.778,0,0,1,2.16.96,2.382,2.382,0,0,1,.8,1.78,2.7,2.7,0,0,1-.38,1.36,4.259,4.259,0,0,1-1.41,1.45,5.719,5.719,0,0,1-2.03.87l-.2.06a3.839,3.839,0,0,1,2.129.92,2.391,2.391,0,0,1,.81,1.84,3.711,3.711,0,0,1-1.319,2.7,5.853,5.853,0,0,1-3.661,1.66q-.139.019-4.22.02-4,0-4.06-.04a.188.188,0,0,1-.08-.16,1.015,1.015,0,0,1,.04-.281c.067-.252.133-.392.2-.419a1.494,1.494,0,0,1,.3-.02h.12c.361,0,.76-.02,1.2-.061a.528.528,0,0,0,.38-.239q.06-.079,1.44-5.56T496.763,159.5Zm6.14,7.98a2.251,2.251,0,0,0-.469-1.46,1.806,1.806,0,0,0-1.191-.68q-.12-.019-1.66-.02-2.36,0-2.38.02,0,.041-.349,1.46t-.691,2.82l-.36,1.4c0,.054.08.083.24.09s.7.016,1.62.03q1.781,0,1.92-.02a3.759,3.759,0,0,0,2.311-1.16A3.4,3.4,0,0,0,502.9,167.479Zm1.08-6.3a1.918,1.918,0,0,0-.35-1.16,1.669,1.669,0,0,0-.93-.64q-.141-.04-1.84-.06c-.266,0-.547,0-.84.009s-.527.011-.7.011h-.26a.453.453,0,0,0-.36.14q-.06.081-.67,2.52t-.63,2.579h1.62q1.621,0,1.86-.039a3.807,3.807,0,0,0,1.551-.65,3.676,3.676,0,0,0,1.129-1.23A3.05,3.05,0,0,0,503.983,161.179Z"/><path class="f" d="M507.383,157.078l.08-.019h.44l.56.48q3.6,3.281,3.6,9.52a15.767,15.767,0,0,1-.58,4.44,10.773,10.773,0,0,1-3.019,5.079c-.094.081-.2.171-.32.271s-.2.17-.24.21h-.24a.759.759,0,0,1-.31-.04c-.047-.026-.07-.094-.07-.2.013-.014.086-.1.22-.26q3.1-3.22,3.1-9.5t-3.1-9.5c-.134-.16-.207-.246-.22-.26A.238.238,0,0,1,507.383,157.078Z"/><path class="f" d="M454.954,186.771a.111.111,0,0,0-.019-.051.11.11,0,0,0-.061-.04.429.429,0,0,1-.08-.029.366.366,0,0,0-.12-.031,1.267,1.267,0,0,0-.14-.009h-.16a1.045,1.045,0,0,1-.17-.011,1.537,1.537,0,0,0-.19-.01h-.2a3.358,3.358,0,0,1-.6-.029.213.213,0,0,1-.14-.131.733.733,0,0,1,.02-.279,1.236,1.236,0,0,1,.18-.441q.06-.039,3.88-.04,3.8.021,4.06.061a4.227,4.227,0,0,1,1.971.83,2.9,2.9,0,0,1,1.029,1.649,3.979,3.979,0,0,1,.02.521,3.345,3.345,0,0,1-.04.659,4.283,4.283,0,0,1-1.28,2.16,6.406,6.406,0,0,1-3.56,1.721q-.139.02-2.1.04h-1.9l-.6,2.38q-.6,2.321-.6,2.46c0,.093.02.146.06.16a5.741,5.741,0,0,0,1.1.1h.621a.739.739,0,0,1,.119.219,1.331,1.331,0,0,1-.14.6.441.441,0,0,1-.32.1q-.34,0-1.21-.019t-1.53-.021c-.427,0-.916,0-1.47.01s-.937.011-1.15.011c-.173,0-.28-.033-.32-.1a.374.374,0,0,1-.04-.1,2.245,2.245,0,0,1,.061-.281.705.705,0,0,1,.159-.37,1.2,1.2,0,0,1,.46-.049q.54,0,1.2-.061a.53.53,0,0,0,.38-.239q.06-.081,1.44-5.561T454.954,186.771Zm7.16,1.479a1.335,1.335,0,0,0-.44-1.11,2.938,2.938,0,0,0-1.26-.51q-.141-.018-1.6-.04c-.227,0-.46,0-.7.01s-.433.011-.58.011h-.24a.428.428,0,0,0-.359.179q-.042.12-.391,1.54t-.69,2.76q-.34,1.341-.36,1.361a12.5,12.5,0,0,0,1.62.04q1.68-.021,1.84-.04a3.436,3.436,0,0,0,2.06-.96,4.312,4.312,0,0,0,.9-1.941A5.836,5.836,0,0,0,462.114,188.25Z"/><path class="f" d="M470.714,204.151c0,.12-.12.179-.36.179h-.26l-.56-.48q-3.6-3.28-3.6-9.52a16.114,16.114,0,0,1,.58-4.46,10.782,10.782,0,0,1,3.02-5.059c.093-.08.2-.171.32-.271s.2-.17.24-.21h.26a.475.475,0,0,1,.3.06.173.173,0,0,1,.06.12c0,.054-.073.153-.22.3q-3.1,3.279-3.1,9.519t3.1,9.52C470.641,204,470.714,204.1,470.714,204.151Z"/><path class="f" d="M477.594,186.771a.106.106,0,0,0-.08-.091.4.4,0,0,1-.08-.029.38.38,0,0,0-.121-.031,1.236,1.236,0,0,0-.139-.009h-.16a1.037,1.037,0,0,1-.17-.011,1.556,1.556,0,0,0-.191-.01h-.2a4.708,4.708,0,0,1-.58-.019.188.188,0,0,1-.141-.12.7.7,0,0,1,.021-.361q.1-.36.18-.4.019-.021,2.6-.021,5.18,0,5.46.04a3.772,3.772,0,0,1,2.159.96,2.382,2.382,0,0,1,.8,1.781,2.7,2.7,0,0,1-.38,1.36,4.265,4.265,0,0,1-1.41,1.449,5.7,5.7,0,0,1-2.03.87l-.2.061a3.839,3.839,0,0,1,2.129.92,2.387,2.387,0,0,1,.811,1.84,3.713,3.713,0,0,1-1.32,2.7,5.856,5.856,0,0,1-3.66,1.66q-.139.02-4.22.019-4,0-4.061-.04a.191.191,0,0,1-.079-.16,1.008,1.008,0,0,1,.04-.28q.1-.379.2-.42a1.53,1.53,0,0,1,.3-.019h.119q.541,0,1.2-.061a.525.525,0,0,0,.379-.239q.06-.081,1.441-5.561T477.594,186.771Zm6.139,7.979a2.245,2.245,0,0,0-.469-1.46,1.8,1.8,0,0,0-1.19-.679q-.12-.021-1.66-.021-2.361,0-2.38.021,0,.039-.35,1.46t-.69,2.819l-.36,1.4c0,.054.08.083.24.09s.7.017,1.62.031q1.78,0,1.92-.021a3.755,3.755,0,0,0,2.31-1.159A3.4,3.4,0,0,0,483.733,194.75Zm1.08-6.3a1.921,1.921,0,0,0-.349-1.161,1.666,1.666,0,0,0-.93-.639c-.094-.028-.707-.047-1.841-.061-.266,0-.547,0-.839.01s-.527.011-.7.011h-.259a.45.45,0,0,0-.36.139q-.06.081-.671,2.521t-.63,2.579h1.621q1.62,0,1.86-.039a3.825,3.825,0,0,0,1.55-.65,3.673,3.673,0,0,0,1.13-1.231A3.048,3.048,0,0,0,484.813,188.451Z"/><path class="f" d="M488.214,184.35l.079-.02h.44c.093.081.281.241.56.481q3.6,3.279,3.6,9.519a15.773,15.773,0,0,1-.581,4.441,10.78,10.78,0,0,1-3.02,5.079c-.093.08-.2.171-.319.27s-.2.17-.241.21h-.24a.736.736,0,0,1-.309-.04c-.047-.026-.071-.093-.071-.2.014-.013.087-.1.22-.26q3.1-3.219,3.1-9.5t-3.1-9.5c-.133-.16-.206-.246-.22-.259A.234.234,0,0,1,488.214,184.35Z"/><rect class="f" x="427.003" y="179.5" width="90" height="1" rx="0.5"/><path d="M298.167,251.532c-.12.7.241,1.961-.919,1.961-.421,0-.56-.281-.56-.641a2.147,2.147,0,0,1,.119-.68,10.88,10.88,0,0,0,.36-2.9,1.887,1.887,0,0,0,0-.481c-.06-.16-.2-.28-.2-.48s.16-.319.261-.52a3.249,3.249,0,0,0,.2-1.24c0-.44-.02-.86-.02-1.28,0-.54.04-1.08.04-1.621,0-.28.04-1.32-.219-1.32a1.727,1.727,0,0,1-.381.12.642.642,0,0,1-.64-.4c.02-.7.78-.881,1-1,.179-.1.14-.28.239-.44.1-.2.4-.26.68-.26.461,0,.721.1,1.041.1.58,0,1.14-.121,1.72-.121a5.2,5.2,0,0,1,2.261.42,1.453,1.453,0,0,0,.56.2c.28.06.38.339.6.54.46.42.78.5.78,1.5a5.081,5.081,0,0,1-.46,2.08c-.36.38-.52,1.04-.78,1.179a12.142,12.142,0,0,0-1.3,1.1l-.48.36a7.772,7.772,0,0,1-3.74,1.16A23.517,23.517,0,0,1,298.167,251.532Zm4.662-5.961c.22-.22.3-.54.54-.741a2.577,2.577,0,0,0,.64-1.78c0-.68-1.341-1.44-2.16-1.52-.6-.04-1.161-.22-1.741-.22a3.145,3.145,0,0,0-1.58.46c.04.42.08,1.06.08,1.4,0,1.2-.12,2.42-.12,3.621,0,.34.02.68.04,1.02a7.593,7.593,0,0,0,2.78-.86C301.789,246.451,302.329,246.051,302.829,245.571Z"/><path d="M311.528,244.691a1.733,1.733,0,0,0-.78.639c-.06.1-.54.42-.68.781a2.6,2.6,0,0,1-.56.82c-.24.24-.421.74-.68,1.08a6.138,6.138,0,0,0-.861,1.961c-.06.76-.259,1.48-.38,2.22-.06.28,0,.56-.34.58-.22.02-.42.221-.6.221a.491.491,0,0,1-.56-.541,2.171,2.171,0,0,1,.08-.5,21.331,21.331,0,0,0,.4-4.441c.04-.62.18-1.3.18-1.94,0-.281-.04-.54-.04-.76,0-.381.26-.941.76-.941.4,0,.58.541.58.96,0,.721-.38,1.481-.38,2.221a1.433,1.433,0,0,0,.14.64c.32-.08.4-.4.521-.68.139-.38.5-.641.66-1.04.139-.381.58-.641.84-.961a6.391,6.391,0,0,1,2.26-1.76,2.487,2.487,0,0,1,1.08-.339c.261-.021.361.279.361.5a.561.561,0,0,1-.541.479C312.448,244.09,312.028,244.47,311.528,244.691Z"/><path d="M321.269,244.731a7.141,7.141,0,0,1,.28,1.58,6.794,6.794,0,0,1-.24,1.42c-.161.7-.8,1.74-.861,2.1-.02.141-.219.26-.26.4-.1.44-.48.679-.92,1a5.278,5.278,0,0,1-1.16.78,7.642,7.642,0,0,1-3.221.78,1.79,1.79,0,0,1-1.52-1.2c-.08-.2-.3-.46-.32-.681-.04-.4.04-1.019.02-1.16-.04-.5.28-.88.42-1.38l.14-.46a8.417,8.417,0,0,1,1.64-2.18,6.582,6.582,0,0,1,1.481-1.1,3.364,3.364,0,0,1,1.4-.54c.26,0,.56.16.78.16.26,0,.28-.4.56-.4.12,0,.18.02.28.02A1.811,1.811,0,0,1,321.269,244.731Zm-4.161.859c-.18.12-.4.2-.581.321-.2.12-.279.379-.5.5-.3.16-.36.6-.62.88a5.5,5.5,0,0,0-1.16,2.12,1.785,1.785,0,0,0-.14.76c0,1.141.5,1.541,1.54,1.541a5.444,5.444,0,0,0,4.1-2.8,8.092,8.092,0,0,0,.76-2.98c0-.221-.06-.6-.259-.6-.181,0-.421.2-.621.2a5.571,5.571,0,0,0-1.24-.34A2.392,2.392,0,0,0,317.108,245.59Z"/><path d="M324.667,253.472c-.38,0-.9-.479-1.24-.66-.5-.26-.481-.48-.481-1,0-.42.241-.78.281-1.2a14.908,14.908,0,0,1,.36-3.141.969.969,0,0,0,.08-.4c0-.24-.061-.52-.061-.84a19.831,19.831,0,0,1,.4-2.881,13.389,13.389,0,0,0,.12-2.181,5.117,5.117,0,0,1-.04-.979.472.472,0,0,1,.58-.46c1.04.159.58,2,.479,2.66-.04.28-.1.54-.139.8-.06.5-.08,1.02-.14,1.52a9.329,9.329,0,0,0-.04,1.281c0,.44-.2,1-.2,1.48a1.261,1.261,0,0,0,.06.4,4.155,4.155,0,0,0,1-1.661,5.515,5.515,0,0,1,.541-.8,2.523,2.523,0,0,1,.62-.861,3.361,3.361,0,0,1,1.96-.78c1.58,0,2.74,1.581,2.74,3.3a12.345,12.345,0,0,1-.36,2.1,4.7,4.7,0,0,1-.58,1.141c-.42.88-1.48,2.5-2.76,2.841A9.5,9.5,0,0,1,324.667,253.472Zm4.741-3.1a8.656,8.656,0,0,0,.44-1.04,4.425,4.425,0,0,0,.6-2.2c0-1-.52-2.421-1.881-2.421-.8,0-1.52.841-1.86,1.521-.12.26-.3.52-.4.76a21.484,21.484,0,0,0-1.741,3.681c0,.34-.239.88-.239,1.22,0,.42.44.58.98.58a18.456,18.456,0,0,0,2.06-.28A7.726,7.726,0,0,0,329.408,250.371Z"/><path d="M339.708,253.693a3.234,3.234,0,0,1-.08-.761c0-1.28.28-2.46.28-3.761-.4.42-.761,1.1-1.22,1.3-.14.06-.42.46-.581.58a10.056,10.056,0,0,1-1.259,1.08,4.3,4.3,0,0,1-2.181.861c-1.5,0-1.8-.821-1.8-1.921a6.6,6.6,0,0,1,.981-3.181,2.524,2.524,0,0,0,.259-.52c.081-.28.221-.28.4-.5a7.409,7.409,0,0,1,1.1-1.259c.22-.18.44-.521.661-.62.339-.161.62-.38.96-.561.24-.12.5-.06.719-.26a3.613,3.613,0,0,1,1.08-.28,11.5,11.5,0,0,0,1.421.12c.281,0,.2-.8.66-.8.34,0,.58.48.58.741a2.207,2.207,0,0,1-.1.559,13.709,13.709,0,0,0-.359,2.5c0,.18.019.34.019.52,0,1.24-.28,2.8-.28,3.681,0,.2-.06.38-.06.56,0,.6.12,1,.12,1.7,0,.341-.4.221-.52.3-.1.08-.18.179-.26.179-.12,0-.28-.139-.42-.2Zm-3.461-7.342a8.964,8.964,0,0,0-1.24,1.46,5.073,5.073,0,0,0-1.061,3.1c0,.541.2.961.781.961.6,0,.98-.36,1.48-.541.9-.319,1.6-1.42,2.36-2.08.261-.219.4-.24.5-.6a6.169,6.169,0,0,1,.621-1.121,4.622,4.622,0,0,0,.52-2.06c0-.341-1.2-.421-1.74-.341A6.209,6.209,0,0,0,336.247,246.351Z"/><path d="M345.167,253.472c-.38,0-.9-.479-1.24-.66-.5-.26-.481-.48-.481-1,0-.42.241-.78.281-1.2a14.908,14.908,0,0,1,.36-3.141.969.969,0,0,0,.08-.4c0-.24-.061-.52-.061-.84a19.831,19.831,0,0,1,.4-2.881,13.389,13.389,0,0,0,.12-2.181,5.117,5.117,0,0,1-.04-.979.472.472,0,0,1,.58-.46c1.04.159.58,2,.479,2.66-.04.28-.1.54-.139.8-.06.5-.08,1.02-.14,1.52a9.329,9.329,0,0,0-.04,1.281c0,.44-.2,1-.2,1.48a1.261,1.261,0,0,0,.06.4,4.155,4.155,0,0,0,1-1.661,5.515,5.515,0,0,1,.541-.8,2.523,2.523,0,0,1,.62-.861,3.361,3.361,0,0,1,1.96-.78c1.58,0,2.74,1.581,2.74,3.3a12.345,12.345,0,0,1-.36,2.1,4.7,4.7,0,0,1-.58,1.141c-.42.88-1.48,2.5-2.76,2.841A9.5,9.5,0,0,1,345.167,253.472Zm4.741-3.1a8.656,8.656,0,0,0,.44-1.04,4.425,4.425,0,0,0,.6-2.2c0-1-.52-2.421-1.881-2.421-.8,0-1.52.841-1.86,1.521-.12.26-.3.52-.4.76a21.484,21.484,0,0,0-1.741,3.681c0,.34-.239.88-.239,1.22,0,.42.44.58.98.58a18.456,18.456,0,0,0,2.06-.28A7.726,7.726,0,0,0,349.908,250.371Z"/><path d="M355.507,245.891c0,1.58-.34,3.08-.34,4.561,0,.36.04.72.04,1.1,0,.96.1,1.641-.881,1.641-.4,0-.479-.441-.479-1.041a25.793,25.793,0,0,1,.46-4.681c.259-1.641-.22-4.081.88-4.081.26,0,.68.12.7.38C355.887,244.43,355.507,245.151,355.507,245.891Zm.04-4.481a.956.956,0,0,1-.54.16.573.573,0,0,1-.58-.6c0-.52.58-.721,1.16-.721.44,0,.58.161.58.34C356.167,241.19,355.947,241.11,355.547,241.41Z"/><path d="M359.727,246.191c0,.34.04.7.04,1.06,0,.2-.021.4-.04.6-.18,1.08-.121,2.181-.34,3.261a1.712,1.712,0,0,0-.04.44c0,.34.059.66.059,1.021,0,.5-.6.62-.94.6-.239-.019-.36-.42-.36-.679a5.347,5.347,0,0,1,.14-1.1,1.9,1.9,0,0,0,.021-.481,4.918,4.918,0,0,1,.08-.78l.139-1a1.412,1.412,0,0,0,.02-.28c0-.22-.02-.42-.02-.64,0-.3.04-.6.04-.9,0-.24-.02-.5-.02-.76,0-1.64.28-3.2.44-4.821.04-.54.1-1.66.72-1.66a.819.819,0,0,1,.78.639A22.3,22.3,0,0,0,359.727,246.191Z"/><path d="M364.207,245.891c0,1.58-.341,3.08-.341,4.561,0,.36.04.72.04,1.1,0,.96.1,1.641-.88,1.641-.4,0-.48-.441-.48-1.041a25.793,25.793,0,0,1,.46-4.681c.261-1.641-.22-4.081.881-4.081.259,0,.679.12.7.38C364.587,244.43,364.207,245.151,364.207,245.891Zm.039-4.481a.956.956,0,0,1-.54.16.573.573,0,0,1-.58-.6c0-.52.58-.721,1.16-.721.441,0,.58.161.58.34C364.866,241.19,364.646,241.11,364.246,241.41Z"/><path d="M370.247,240.39c0,.64-.261,1.3-.261,1.9,0,.32.12.64.12.94,0,.36-.04.74-.04,1.1a16.731,16.731,0,0,0,4-.719.48.48,0,0,1,.161-.021.241.241,0,0,1,.259.26c0,.921-3.08,1.381-3.52,1.48l-.681.181a.3.3,0,0,0-.239.34c0,.12.04.28.04.42,0,1.58-.3,3.16-.3,4.681,0,.2.061.6.061.96a1.207,1.207,0,0,1-1.141,1.14.875.875,0,0,1-.66-.46c0-.18.261-.42.34-.52a1.151,1.151,0,0,0,.22-.68,29.874,29.874,0,0,0,.34-5.022c0-.359-.08-.74-.4-.74a5.464,5.464,0,0,0-2.66.521,1.56,1.56,0,0,1-.721.28c-.279,0-.5-.181-.5-.36,0-.3.5-.66.681-.821a3.356,3.356,0,0,1,1.88-.639l1.6-.181c.1-.04.12-.239.12-.46,0-.28-.04-.62-.04-.76,0-1.02.061-2.06.061-3.081,0-.26.519-.479.9-.479a.446.446,0,0,1,.3.08A2.48,2.48,0,0,1,370.247,240.39Z"/><path d="M379.947,248.011c.56-1.24,1.241-4.1,2.4-4.1a.535.535,0,0,1,.58.58c0,.78-.7,1.16-.981,1.82a15.459,15.459,0,0,1-1.3,2.8,7.766,7.766,0,0,0-.7,1.94c-.14.78-.28.66-.72.92a1.478,1.478,0,0,0-.52.66,8.581,8.581,0,0,0-.94,1.721c-.121.34-.321.4-.561.7a6.586,6.586,0,0,0-.96,1.42l-.22.62c-.16.42-.46,1.34-1.06,1.34a.6.6,0,0,1-.62-.56c0-.4.42-.86.56-1.16.5-.7.821-1.52,1.321-2.22a3.767,3.767,0,0,0,.58-1.021,4.644,4.644,0,0,1,.679-1.2,7.44,7.44,0,0,1,.8-1.2,5.18,5.18,0,0,0-1.5-2.161c-.34-.219-.42-.62-.6-1.02a9.6,9.6,0,0,1-.8-1.42c-.1-.24-.38-.221-.5-.5-.18-.381-1-.9-1-2.02a.353.353,0,0,1,.38-.4c.42,0,.86.521,1.04.8.16.3.44.341.56.641.1.24.42.36.5.62a12.646,12.646,0,0,0,1.061,1.841c.519.819,1.1,1.5,1.58,2.36C379.287,249.812,379.727,248.492,379.947,248.011Z"/><path d="M392.167,240.39c0,.64-.261,1.3-.261,1.9,0,.32.12.64.12.94,0,.36-.04.74-.04,1.1a16.731,16.731,0,0,0,4-.719.475.475,0,0,1,.16-.021.241.241,0,0,1,.26.26c0,.921-3.08,1.381-3.52,1.48l-.681.181a.3.3,0,0,0-.239.34c0,.12.04.28.04.42,0,1.58-.3,3.16-.3,4.681,0,.2.061.6.061.96a1.208,1.208,0,0,1-1.141,1.14.875.875,0,0,1-.66-.46c0-.18.261-.42.34-.52a1.151,1.151,0,0,0,.22-.68,29.874,29.874,0,0,0,.34-5.022c0-.359-.08-.74-.4-.74a5.464,5.464,0,0,0-2.66.521,1.564,1.564,0,0,1-.721.28c-.279,0-.5-.181-.5-.36,0-.3.5-.66.681-.821a3.356,3.356,0,0,1,1.88-.639l1.6-.181c.1-.04.12-.239.12-.46,0-.28-.04-.62-.04-.76,0-1.02.061-2.06.061-3.081,0-.26.519-.479.9-.479a.446.446,0,0,1,.3.08A2.521,2.521,0,0,1,392.167,240.39Z"/><path d="M398.445,242.59c0,.52.061,1.06.061,1.6,0,.639-.1,1.28-.1,1.94,0,.32.061.62.061.92,0,.54-.18,1.08-.18,1.62a1.817,1.817,0,0,0,.08.561,15.528,15.528,0,0,0,1.16-2.121c.2-.38.46-.741.661-1.14.179-.36.54-.58.779-.921a3.281,3.281,0,0,1,1.921-1.26,2.578,2.578,0,0,1,1.18.441c.7.439.78,2.38.78,3.52,0,.741-.04,1.481-.04,2.221,0,.4.06.819.06,1.22,0,.36-.46.66-.82.66-.38,0-.481-.22-.481-.78,0-1.321.161-2.46.161-4,0-.821-.18-2.061-.781-2.061-.4,0-.679.481-1.059.561-.641.12-1.761,2.08-1.821,2.48a4.419,4.419,0,0,1-.36,1.061c-.18.4-.32,1.139-.641,1.42-.159.14-.139.62-.259.82a2.073,2.073,0,0,0-.34,1.181v.259c0,.48-.82.76-1.221.76-.3-.019-.279-.68-.279-1.04,0-.94.26-1.94.26-2.881,0-.3-.04-.6-.04-.92,0-.9.179-1.841.179-2.74,0-.4-.08-.78-.08-1.16,0-.8.141-1.561.141-2.381a10.334,10.334,0,0,1,.34-2.78.289.289,0,0,1,.3-.2c.261,0,.441.08.46.219a2.773,2.773,0,0,1,.121.8C398.646,241.19,398.445,241.869,398.445,242.59Z"/><path d="M413.687,253.693a3.235,3.235,0,0,1-.081-.761c0-1.28.281-2.46.281-3.761-.4.42-.761,1.1-1.221,1.3-.14.06-.42.46-.58.58a10.07,10.07,0,0,1-1.26,1.08,4.293,4.293,0,0,1-2.18.861c-1.5,0-1.8-.821-1.8-1.921a6.611,6.611,0,0,1,.98-3.181,2.528,2.528,0,0,0,.26-.52c.08-.28.221-.28.4-.5a7.415,7.415,0,0,1,1.1-1.259c.22-.18.439-.521.66-.62.34-.161.62-.38.96-.561.24-.12.5-.06.72-.26a3.6,3.6,0,0,1,1.08-.28,11.479,11.479,0,0,0,1.421.12c.28,0,.2-.8.66-.8.34,0,.58.48.58.741a2.17,2.17,0,0,1-.1.559,13.709,13.709,0,0,0-.359,2.5c0,.18.02.34.02.52,0,1.24-.281,2.8-.281,3.681,0,.2-.059.38-.059.56,0,.6.12,1,.12,1.7,0,.341-.4.221-.521.3-.1.08-.179.179-.259.179-.121,0-.281-.139-.42-.2Zm-3.461-7.342a8.923,8.923,0,0,0-1.241,1.46,5.07,5.07,0,0,0-1.06,3.1c0,.541.2.961.78.961.6,0,.981-.36,1.481-.541.9-.319,1.6-1.42,2.36-2.08.261-.219.4-.24.5-.6a6.165,6.165,0,0,1,.62-1.121,4.611,4.611,0,0,0,.521-2.06c0-.341-1.2-.421-1.741-.341A6.206,6.206,0,0,0,410.226,246.351Z"/><path d="M421.406,240.39c0,.64-.26,1.3-.26,1.9,0,.32.12.64.12.94,0,.36-.04.74-.04,1.1a16.749,16.749,0,0,0,4-.719.472.472,0,0,1,.16-.021.241.241,0,0,1,.259.26c0,.921-3.08,1.381-3.52,1.48l-.681.181a.3.3,0,0,0-.239.34c0,.12.04.28.04.42,0,1.58-.3,3.16-.3,4.681,0,.2.061.6.061.96a1.207,1.207,0,0,1-1.141,1.14.875.875,0,0,1-.66-.46c0-.18.261-.42.34-.52a1.159,1.159,0,0,0,.221-.68,29.979,29.979,0,0,0,.339-5.022c0-.359-.08-.74-.4-.74a5.469,5.469,0,0,0-2.66.521,1.56,1.56,0,0,1-.721.28c-.279,0-.5-.181-.5-.36,0-.3.5-.66.681-.821a3.356,3.356,0,0,1,1.88-.639l1.6-.181c.1-.04.12-.239.12-.46,0-.28-.04-.62-.04-.76,0-1.02.061-2.06.061-3.081,0-.26.52-.479.9-.479a.443.443,0,0,1,.3.08A2.48,2.48,0,0,1,421.406,240.39Z"/><path d="M436.146,239.869a5.883,5.883,0,0,1,.179.821c.2.98,1.1,1.94,1.321,3.08a14.991,14.991,0,0,0,.46,1.621,6.238,6.238,0,0,0,.38,2.02,13.357,13.357,0,0,1,1.9-.36c.139.14-.04.66-.58.8-.521.28-.881.32-1.2.52l.1.8c.08.821.021,1.641.1,2.481,0,.18.059.34.059.46,0,.22-.64.58-.96.58a.187.187,0,0,1-.18-.1c-.04-.18-.3-.4-.3-.56,0-.54.22-1,.22-1.54,0-.621-.16-1.22-.22-1.84-.74.279-1.481.519-2.221.74-.519.159-2.2.4-2.34.88a26.748,26.748,0,0,0-.82,3.261c-.12.639-.3,1.46-1.12,1.46-.3,0-.481-.241-.481-.6a3.785,3.785,0,0,1,.481-1.36,8.86,8.86,0,0,0,.559-1.881c.181-.941.481-1.84.641-2.761.1-.58.439-1.12.56-1.7a24.051,24.051,0,0,1,1.12-3.321,9.489,9.489,0,0,1,.841-2.18c.08-.14.28-.38.28-.54,0-.181-.1-.361-.1-.54,0-.34.441-.521.74-.521a.9.9,0,0,1,.54.2A.15.15,0,0,1,436.146,239.869Zm-1.7,4.761a9.077,9.077,0,0,0-.259,1.061,7.533,7.533,0,0,0-.321.88c-.1.76-.52,1.421-.56,2.18a4.492,4.492,0,0,0,1.24-.3c.98-.041,1.74-.621,2.7-.661,0-1.52-.681-2.84-.86-4.3-.021-.2-.521-1.321-.821-1.321-.1,0-.139.18-.219.38a13.25,13.25,0,0,0-.58,1.2A6.591,6.591,0,0,1,434.445,244.63Z"/><path d="M454.386,244.731a7.082,7.082,0,0,1,.28,1.58,6.794,6.794,0,0,1-.24,1.42c-.16.7-.8,1.74-.861,2.1-.019.141-.219.26-.259.4-.1.44-.481.679-.92,1a5.3,5.3,0,0,1-1.16.78,7.645,7.645,0,0,1-3.221.78,1.791,1.791,0,0,1-1.521-1.2,3.039,3.039,0,0,1-.32-.681c-.04-.4.04-1.019.021-1.16-.04-.5.279-.88.419-1.38l.14-.46a8.451,8.451,0,0,1,1.641-2.18,6.577,6.577,0,0,1,1.48-1.1,3.368,3.368,0,0,1,1.4-.54c.259,0,.559.16.78.16.26,0,.279-.4.559-.4.121,0,.181.02.281.02A1.808,1.808,0,0,1,454.386,244.731Zm-4.16.859c-.181.12-.4.2-.581.321-.2.12-.28.379-.5.5-.3.16-.36.6-.621.88a5.513,5.513,0,0,0-1.16,2.12,1.8,1.8,0,0,0-.139.76c0,1.141.5,1.541,1.54,1.541a5.442,5.442,0,0,0,4.1-2.8,8.074,8.074,0,0,0,.761-2.98c0-.221-.061-.6-.26-.6-.18,0-.421.2-.62.2a5.587,5.587,0,0,0-1.24-.34A2.39,2.39,0,0,0,450.226,245.59Z"/><path d="M463.306,244.51c-.521,0-.76-.26-1.181-.26a3.976,3.976,0,0,0-1.84.7,5.955,5.955,0,0,0-3.06,5.241,5.2,5.2,0,0,0,.359,1.3c.12.42.94.64,1.341.64a4.531,4.531,0,0,0,2.32-1.04c.36-.261.58-.62.9-.881.219-.179.259-.059.719-1.2.141-.359.42-.6.4-.939,0-.1-.06-.241-.06-.361,0-.3.54-.6.779-.52.3.1.3.46.3.72,0,.68-.56,1.281-.74,1.96a3.38,3.38,0,0,1-1.261,1.521c-.42.22-.639.84-1.019.98a3.347,3.347,0,0,0-.761.36,3.818,3.818,0,0,1-1.78.58c-.321,0-.661-.04-.981-.06a2.835,2.835,0,0,1-1.16-1.06,1.731,1.731,0,0,0-.26-.64,3.621,3.621,0,0,1-.26-1.5,5.889,5.889,0,0,1,.94-3.1c.2-.34.261-.72.54-.96a7.947,7.947,0,0,0,.8-.84,6.124,6.124,0,0,1,3.881-1.9c.379,0,1.759.1,1.759.88C464.006,244.29,463.565,244.51,463.306,244.51Z"/><path d="M473.065,244.51c-.52,0-.759-.26-1.18-.26a3.976,3.976,0,0,0-1.84.7,5.956,5.956,0,0,0-3.061,5.241,5.206,5.206,0,0,0,.36,1.3c.12.42.94.64,1.341.64a4.535,4.535,0,0,0,2.32-1.04c.36-.261.58-.62.9-.881.22-.179.26-.059.72-1.2.141-.359.42-.6.4-.939,0-.1-.059-.241-.059-.361,0-.3.54-.6.779-.52.3.1.3.46.3.72,0,.68-.561,1.281-.74,1.96a3.38,3.38,0,0,1-1.261,1.521c-.42.22-.64.84-1.02.98a3.339,3.339,0,0,0-.76.36,3.818,3.818,0,0,1-1.781.58c-.32,0-.66-.04-.98-.06a2.835,2.835,0,0,1-1.16-1.06,1.731,1.731,0,0,0-.26-.64,3.605,3.605,0,0,1-.26-1.5,5.889,5.889,0,0,1,.94-3.1c.2-.34.26-.72.54-.96a7.937,7.937,0,0,0,.8-.84,6.129,6.129,0,0,1,3.881-1.9c.38,0,1.76.1,1.76.88C473.766,244.29,473.325,244.51,473.065,244.51Z"/><path d="M483.926,243.97c0,1.541-.66,3.482-.66,5.222,0,.38-.2.559-.2.86,0,.6.161.819.161,1.84,0,.6-.1,1.221-.6,1.221-.6,0-.7-.54-.7-1.041,0-.7.18-1.361.18-2.06a2.667,2.667,0,0,0-.02-.4c-.521.019-.76.9-1,1.259a14.931,14.931,0,0,1-1.561,1.821,4.411,4.411,0,0,1-2.6,1.121c-.84,0-1.24-.62-1.24-1.5a28.932,28.932,0,0,1,.42-3.62c.12-.921.26-1.822.419-2.741.121-.64-.08-1.46.481-1.92.36.019.82.24.82.62,0,.5-.34,1.059-.34,1.54,0,.96-.34,1.841-.38,2.78-.041.881-.28,1.78-.28,2.681,0,.68.239.98.66.98.44,0,.94-.6,1.06-.6.381,0,.82-.54,1.1-.9a16.855,16.855,0,0,0,1.48-1.921c.26-.479.5-.96.8-1.42a5.6,5.6,0,0,0,.56-1.72l.46-1.84c.1-.381.12-1.061.68-1.061A1.065,1.065,0,0,1,483.926,243.97Z"/><path d="M491.465,244.691a1.733,1.733,0,0,0-.78.639c-.06.1-.54.42-.68.781a2.6,2.6,0,0,1-.561.82c-.24.24-.42.74-.679,1.08a6.138,6.138,0,0,0-.861,1.961c-.06.76-.259,1.48-.38,2.22-.06.28,0,.56-.34.58-.22.02-.42.221-.6.221a.492.492,0,0,1-.561-.541,2.12,2.12,0,0,1,.081-.5,21.4,21.4,0,0,0,.4-4.441c.04-.62.18-1.3.18-1.94,0-.281-.04-.54-.04-.76,0-.381.26-.941.76-.941.4,0,.58.541.58.96,0,.721-.38,1.481-.38,2.221a1.433,1.433,0,0,0,.14.64c.32-.08.4-.4.521-.68.139-.38.5-.641.66-1.04.139-.381.58-.641.84-.961a6.374,6.374,0,0,1,2.26-1.76,2.483,2.483,0,0,1,1.08-.339c.26-.021.36.279.36.5a.559.559,0,0,1-.54.479C492.385,244.09,491.965,244.47,491.465,244.691Z"/><path d="M500.025,245.01c-.38,0-.52-.319-.86-.38a6.581,6.581,0,0,0-2.4.481c-.221.04-.341.36-.561.46a1.861,1.861,0,0,0-.98,1.46c.18.72.9.88,1.541,1.041l1.019.259a5.13,5.13,0,0,1,.921.361c.26.119.84.279,1.1.439.52.321.94.561.94,1.421a1.28,1.28,0,0,1-.4.98c-1.321,1.48-3.58,1.961-5.441,1.961-.94,0-2.161-.081-2.161-1.441,0-.28.1-.54.381-.6.439,0,.8,1.1,1.88,1.1,1.6,0,4.6-.96,4.6-2.02a1.277,1.277,0,0,0-1.3-.821c-.18,0-.16-.04-.4-.179-.439-.241-1.019-.2-1.38-.4-.9-.5-2.52-.519-2.52-2.04,0-1.24,1.16-2.16,1.92-2.621.18-.1.6-.5.78-.5.74,0,1.381-.38,2.181-.38.88,0,1.72.26,1.72,1.24C500.565,244.97,500.226,245.01,500.025,245.01Z"/><path d="M514.665,244.43c-1.22,0-1.96.66-2.94,1.1a25.359,25.359,0,0,0-1.96,1.961c-.4.379-.5,1.139-.781,1.62a6.417,6.417,0,0,0-.8,2.34c0,.54.52.58.76.58.88,0,2.361-1.02,3.321-1.88.339-.3.74-1.16.94-1.16a7.415,7.415,0,0,0,1.16-2.641c.04-.36.04-1.58.62-1.58.521,0,.62.62.62,1.1,0,.781-.1,1.181-.1,1.8v.48a11.641,11.641,0,0,1-.1,1.2c0,.239.021.479.021.7,0,.159-.08.2-.12.4-.141.94-.361,1.82-.46,2.72-.04.24-.04.5-.1.74a3.6,3.6,0,0,0-.26.781,9.7,9.7,0,0,1-.82,2.58c-.54,1.48-1.96,3.641-4.041,3.641-.9,0-2.221-.18-2.62-.72-.2-.26-.46-.38-.62-.58-.221-.281-.4-.321-.6-.561a7.146,7.146,0,0,1-.96-1.34.882.882,0,0,1-.1-.44c0-.2.06-.36.2-.36.12,0,.32.14.54.52a4.454,4.454,0,0,0,.721.921,3.862,3.862,0,0,0,3.08,1.4c1.24,0,1.741-.719,2.8-1.82a11.11,11.11,0,0,0,.681-1.3c.2-.28.16-.8.3-1.16.12-.34.4-.62.4-1a8.152,8.152,0,0,1,.44-2.161,16.881,16.881,0,0,0,.52-3.32c-.36.179-.54.7-.82.98a14.232,14.232,0,0,1-.96,1.18c-.28.219-.48.42-.7.6a4.108,4.108,0,0,1-1.381.821c-.7.159-1.7.66-1.82.66a1.9,1.9,0,0,1-1.8-1.461,5.29,5.29,0,0,1,.58-2.061c.68-1.5,1.08-2.88,2.56-4.121a8.446,8.446,0,0,0,.621-.6,8.686,8.686,0,0,1,1.24-.76,4.085,4.085,0,0,1,1.48-.74c.42-.04.84-.161,1.281-.161.679,0,2.2.52,2.2,1.3,0,.3-.14.4-.4.4C515.926,245.031,515.565,244.43,514.665,244.43Z"/><path d="M520.044,245.891c0,1.58-.34,3.08-.34,4.561,0,.36.04.72.04,1.1,0,.96.1,1.641-.881,1.641-.4,0-.479-.441-.479-1.041a25.793,25.793,0,0,1,.46-4.681c.26-1.641-.22-4.081.88-4.081.26,0,.68.12.7.38C520.424,244.43,520.044,245.151,520.044,245.891Zm.04-4.481a.956.956,0,0,1-.54.16.573.573,0,0,1-.58-.6c0-.52.58-.721,1.16-.721.44,0,.58.161.58.34C520.7,241.19,520.484,241.11,520.084,241.41Z"/><path d="M529.785,245.59c-.06.08-.14.321-.28.4a13.9,13.9,0,0,0-1.2,2c-.181.319-.361,1.16-.641,1.32-.72.42-1.32,1.96-1.94,2.9-.06.08-.02.22-.1.3a1.567,1.567,0,0,1-1.16.4c-.54,0-.521-.46-.66-.78-.321-.28-.3-.98-.561-1.52a3.685,3.685,0,0,1-.4-1.46c-.541-.861-.441-1.961-1.021-2.581-.28-.3-.6-.52-.62-.981a.6.6,0,0,1,.52-.319c.72,0,1.34.979,1.421,1.2.12.34.28.68.379,1.06.06.28-.019.72.18.94.181.2.181.42.3.66.08.221.12.9.319,1.021.181.1.361.82.441,1.02.36-.06.66-.64.8-.94a4.107,4.107,0,0,1,.781-.981,12.472,12.472,0,0,0,1.7-2.961c.141-.259.461-.46.5-.739.04-.261.34-.221.38-.48s.34-.22.4-.481c.08-.359.5-.979.761-.979.36,0,.72.739.66.939C530.6,244.991,530.064,245.25,529.785,245.59Z"/><path d="M531.023,251.152a8.752,8.752,0,0,1,.4-2.921.37.37,0,0,0,.08-.22c0-.18-.14-.3-.14-.54,0-.18.14-.22.26-.28a8.731,8.731,0,0,0,.74-1.26c.8-1.261,1.861-3.161,3.741-3.141,1.42,0,2.46,1.92,2.46,3.141,0,1.18-2.72,1.18-4.04,1.62-.84.28-1.9.16-2.1.9a10.149,10.149,0,0,0-.421,2.56c0,.82.2,1.54.881,1.76,1.72-.159,3.02-1.76,4.161-2.88.319-.32.38-.94.7-1.221.239-.219.58-1.02,1.02-1a.435.435,0,0,1,.44.46c0,.66-.9,1.74-1.1,2.021a3.036,3.036,0,0,0-.419.7c-.121.26-.34.26-.521.5-.159.22-.159.4-.42.54a4.732,4.732,0,0,0-.68.58,5.472,5.472,0,0,1-3.121,1.36,1.808,1.808,0,0,1-1.679-.98A5.92,5.92,0,0,1,531.023,251.152Zm4.662-7.322c-.121.02-.181.161-.321.161-.42.059-.64.46-.92.7a4.222,4.222,0,0,0-1.161,1.92c1.641-.14,4.222-.241,4.222-1.3a1.714,1.714,0,0,0-.62-1.16A1.519,1.519,0,0,0,535.685,243.83Z"/><path d="M548.584,248.551c.02.2.1.42.1.62,0,.281-.181.481-.181.761,0,.14.02.26.02.4,0,.5-.1.561-.1,1.1,0,.26-.021.52-.021.78,0,.3-.54.64-1,.64-.3,0-.44-.22-.44-.5,0-.48.181-.78.181-1.18,0-.52.259-.9.259-1.461v-.4c0-.58.06-1.141.06-1.7,0-.24.1-2.361-.62-2.361-1.12,0-1.14.861-2.18,1.441-.38.2-.5.5-.761.86a7.933,7.933,0,0,0-1.54,3.7,8.867,8.867,0,0,0-.179,1.16c0,1.281-.5.621-.761,1a.3.3,0,0,1-.28.14c-.34,0-.44-.24-.44-.54a2.7,2.7,0,0,1,.22-.9,6.624,6.624,0,0,0,.28-2.26c0-.46.04-.721.02-1.221-.02-.38,0-.88,0-1.74a8.607,8.607,0,0,0-.08-1.24c-.02-.2-.1-.46-.1-.681,0-.319.5-.819.76-.7.36.159.5,1.1.5,1.74,0,1.08-.021.96-.021,2.021.74-.241,1.141-1.681,1.981-2.322.82-.62,1.62-1.62,2.72-1.62,1.08,0,1.54,1.141,1.54,2.7C548.564,247.371,548.544,247.971,548.584,248.551Z"/><path d="M304.088,264.39c0,.64-.26,1.3-.26,1.9,0,.32.12.64.12.94,0,.36-.04.74-.04,1.1a16.758,16.758,0,0,0,4-.719.466.466,0,0,1,.159-.021.241.241,0,0,1,.261.26c0,.921-3.081,1.381-3.521,1.48l-.681.181a.3.3,0,0,0-.239.34c0,.12.04.28.04.42,0,1.58-.3,3.16-.3,4.681,0,.2.061.6.061.96a1.208,1.208,0,0,1-1.141,1.14.875.875,0,0,1-.66-.46c0-.18.26-.42.34-.52a1.151,1.151,0,0,0,.22-.68,29.875,29.875,0,0,0,.341-5.022c0-.359-.08-.74-.4-.74a5.467,5.467,0,0,0-2.66.521,1.556,1.556,0,0,1-.721.28c-.279,0-.5-.181-.5-.36,0-.3.5-.66.681-.821a3.362,3.362,0,0,1,1.88-.639l1.6-.181c.1-.04.121-.239.121-.46,0-.28-.04-.62-.04-.76,0-1.02.06-2.06.06-3.081,0-.26.52-.479.9-.479a.442.442,0,0,1,.3.08A2.48,2.48,0,0,1,304.088,264.39Z"/><path d="M310.367,266.59c0,.52.06,1.06.06,1.6,0,.639-.1,1.28-.1,1.94,0,.32.06.62.06.92,0,.54-.18,1.08-.18,1.62a1.817,1.817,0,0,0,.08.561,15.528,15.528,0,0,0,1.16-2.121c.2-.38.46-.741.66-1.14.18-.36.54-.58.78-.921a3.284,3.284,0,0,1,1.921-1.26,2.578,2.578,0,0,1,1.18.441c.7.439.78,2.38.78,3.52,0,.741-.04,1.481-.04,2.221,0,.4.06.819.06,1.22,0,.36-.46.66-.82.66-.38,0-.48-.22-.48-.78,0-1.321.16-2.46.16-4,0-.821-.18-2.061-.78-2.061-.4,0-.68.481-1.06.561-.641.12-1.761,2.08-1.821,2.48a4.419,4.419,0,0,1-.36,1.061c-.18.4-.32,1.139-.64,1.42-.16.14-.14.62-.26.82a2.08,2.08,0,0,0-.34,1.181v.259c0,.48-.82.76-1.22.76-.3-.019-.28-.68-.28-1.04,0-.94.259-1.94.259-2.881,0-.3-.04-.6-.04-.92,0-.9.181-1.841.181-2.74,0-.4-.08-.78-.08-1.16,0-.8.14-1.561.14-2.381a10.374,10.374,0,0,1,.34-2.78.291.291,0,0,1,.3-.2c.26,0,.44.08.46.219a2.772,2.772,0,0,1,.12.8C310.567,265.19,310.367,265.869,310.367,266.59Z"/><path d="M325.607,277.693a3.343,3.343,0,0,1-.08-.761c0-1.28.281-2.46.281-3.761-.4.42-.76,1.1-1.22,1.3-.141.06-.421.46-.58.58a10.156,10.156,0,0,1-1.261,1.08,4.293,4.293,0,0,1-2.18.861c-1.5,0-1.8-.821-1.8-1.921a6.611,6.611,0,0,1,.98-3.181,2.528,2.528,0,0,0,.26-.52c.08-.28.22-.28.4-.5a7.454,7.454,0,0,1,1.1-1.259c.22-.18.44-.521.66-.62.34-.161.62-.38.96-.561.24-.12.5-.06.721-.26a3.589,3.589,0,0,1,1.08-.28,11.463,11.463,0,0,0,1.42.12c.28,0,.2-.8.66-.8.34,0,.58.48.58.741a2.207,2.207,0,0,1-.1.559,13.712,13.712,0,0,0-.36,2.5c0,.18.02.34.02.52,0,1.24-.28,2.8-.28,3.681,0,.2-.06.38-.06.56,0,.6.12,1,.12,1.7,0,.341-.4.221-.52.3-.1.08-.18.179-.261.179-.119,0-.279-.139-.419-.2Zm-3.46-7.342a8.964,8.964,0,0,0-1.24,1.46,5.07,5.07,0,0,0-1.06,3.1c0,.541.2.961.78.961.6,0,.979-.36,1.48-.541.9-.319,1.6-1.42,2.361-2.08.26-.219.4-.24.5-.6a6.1,6.1,0,0,1,.62-1.121,4.621,4.621,0,0,0,.519-2.06c0-.341-1.2-.421-1.74-.341A6.214,6.214,0,0,0,322.147,270.351Z"/><path d="M333.327,264.39c0,.64-.26,1.3-.26,1.9,0,.32.121.64.121.94,0,.36-.041.74-.041,1.1a16.749,16.749,0,0,0,4-.719.475.475,0,0,1,.16-.021.241.241,0,0,1,.26.26c0,.921-3.081,1.381-3.521,1.48l-.68.181a.3.3,0,0,0-.24.34c0,.12.04.28.04.42,0,1.58-.3,3.16-.3,4.681,0,.2.06.6.06.96a1.207,1.207,0,0,1-1.14,1.14.873.873,0,0,1-.66-.46c0-.18.26-.42.34-.52a1.151,1.151,0,0,0,.22-.68,29.98,29.98,0,0,0,.34-5.022c0-.359-.08-.74-.4-.74a5.473,5.473,0,0,0-2.661.521,1.552,1.552,0,0,1-.72.28c-.28,0-.5-.181-.5-.36,0-.3.5-.66.68-.821a3.362,3.362,0,0,1,1.881-.639l1.6-.181c.1-.04.12-.239.12-.46,0-.28-.04-.62-.04-.76,0-1.02.06-2.06.06-3.081,0-.26.52-.479.9-.479a.44.44,0,0,1,.3.08A2.439,2.439,0,0,1,333.327,264.39Z"/><path d="M346.247,277.172c-.66,0-1.121-.32-1.681-.32-.259,0-.6-.92-.6-1.42a.338.338,0,0,1,.38-.38c.08-1.04.1-2.081.1-3.1v-1.281c-.06-2.7-.06-3.14-.1-3.4-.3-.16-.8-.34-.8-.72,0-1.02,2.44-1.04,3.7-1.16.48-.04.96-.08,1.42-.141a7.436,7.436,0,0,1,1.12-.2,1.817,1.817,0,0,1,.32.039c1,.261,2.081-.2,2.861.721a1.354,1.354,0,0,1,.32.86c0,1.241-1.6,2.7-2.16,3.021a11.082,11.082,0,0,0-1.021.639c.3.261.8.181,1.141.341.38.18.68.5,1.04.7.54.32.5.94.5,1.48a1.306,1.306,0,0,1-.22.7c-.2.381-.421,1.16-.78,1.381-.3.2-.42.56-.7.72a3.025,3.025,0,0,0-.62.38,13.444,13.444,0,0,1-2,.8,2.114,2.114,0,0,0-.861.22A5.829,5.829,0,0,1,346.247,277.172Zm-.3-10.562a3.567,3.567,0,0,0-.439.08,2.4,2.4,0,0,0-.04.62c0,.46.139.881.139,1.36,0,.42-.059.861-.059,1.3a2.481,2.481,0,0,0,.14.94,11.371,11.371,0,0,0,4.42-1.781,6.91,6.91,0,0,0,1.04-.84,2.446,2.446,0,0,0,.88-1.66c0-.3-.439-.52-.859-.52A32.751,32.751,0,0,0,345.946,266.61Zm3.161,4.8a15.9,15.9,0,0,0-3.3.621c-.22.04-.26.259-.26.5,0,.2.019.4.019.559-.04.921-.2,2.981.1,3a6.56,6.56,0,0,0,4.222-1,6.831,6.831,0,0,1,.88-.64,2.724,2.724,0,0,0,.839-1.781,1.139,1.139,0,0,0-.339-.8A3.023,3.023,0,0,0,349.107,271.411Z"/><path d="M361.466,266.59c0,.52.059,1.06.059,1.6,0,.639-.1,1.28-.1,1.94,0,.32.059.62.059.92,0,.54-.179,1.08-.179,1.62a1.817,1.817,0,0,0,.08.561,15.528,15.528,0,0,0,1.16-2.121c.2-.38.46-.741.66-1.14.18-.36.54-.58.78-.921a3.282,3.282,0,0,1,1.92-1.26,2.577,2.577,0,0,1,1.181.441c.7.439.78,2.38.78,3.52,0,.741-.04,1.481-.04,2.221,0,.4.06.819.06,1.22,0,.36-.46.66-.82.66-.38,0-.48-.22-.48-.78,0-1.321.16-2.46.16-4,0-.821-.181-2.061-.78-2.061-.4,0-.681.481-1.061.561-.639.12-1.76,2.08-1.82,2.48a4.419,4.419,0,0,1-.36,1.061c-.18.4-.32,1.139-.64,1.42-.16.14-.14.62-.26.82a2.081,2.081,0,0,0-.341,1.181v.259c0,.48-.819.76-1.219.76-.3-.019-.281-.68-.281-1.04,0-.94.26-1.94.26-2.881,0-.3-.04-.6-.04-.92,0-.9.181-1.841.181-2.74,0-.4-.08-.78-.08-1.16,0-.8.139-1.561.139-2.381a10.415,10.415,0,0,1,.34-2.78.292.292,0,0,1,.3-.2c.26,0,.439.08.46.219a2.772,2.772,0,0,1,.12.8C361.666,265.19,361.466,265.869,361.466,266.59Z"/><path d="M376.706,277.693a3.288,3.288,0,0,1-.08-.761c0-1.28.28-2.46.28-3.761-.4.42-.76,1.1-1.219,1.3-.141.06-.421.46-.581.58a10.07,10.07,0,0,1-1.26,1.08,4.3,4.3,0,0,1-2.181.861c-1.5,0-1.8-.821-1.8-1.921a6.611,6.611,0,0,1,.98-3.181,2.528,2.528,0,0,0,.26-.52c.081-.28.22-.28.4-.5a7.544,7.544,0,0,1,1.1-1.259c.22-.18.441-.521.661-.62.339-.161.62-.38.96-.561.24-.12.5-.06.72-.26a3.605,3.605,0,0,1,1.08-.28,11.479,11.479,0,0,0,1.42.12c.281,0,.2-.8.66-.8.34,0,.581.48.581.741a2.252,2.252,0,0,1-.1.559,13.712,13.712,0,0,0-.36,2.5c0,.18.02.34.02.52,0,1.24-.28,2.8-.28,3.681,0,.2-.061.38-.061.56,0,.6.12,1,.12,1.7,0,.341-.4.221-.519.3-.1.08-.181.179-.261.179-.119,0-.279-.139-.42-.2Zm-3.46-7.342a8.964,8.964,0,0,0-1.24,1.46,5.066,5.066,0,0,0-1.061,3.1c0,.541.2.961.781.961.6,0,.979-.36,1.48-.541.9-.319,1.6-1.42,2.36-2.08.26-.219.4-.24.5-.6a6.11,6.11,0,0,1,.621-1.121,4.634,4.634,0,0,0,.519-2.06c0-.341-1.2-.421-1.74-.341A6.206,6.206,0,0,0,373.246,270.351Z"/><path d="M387.406,269.01c-.38,0-.519-.319-.86-.38a6.585,6.585,0,0,0-2.4.481c-.22.04-.34.36-.56.46a1.862,1.862,0,0,0-.981,1.46c.18.72.9.88,1.541,1.041l1.02.259a5.092,5.092,0,0,1,.92.361c.261.119.841.279,1.1.439.519.321.94.561.94,1.421a1.28,1.28,0,0,1-.4.98c-1.321,1.48-3.581,1.961-5.442,1.961-.94,0-2.16-.081-2.16-1.441,0-.28.1-.54.38-.6.44,0,.8,1.1,1.881,1.1,1.6,0,4.6-.96,4.6-2.02a1.276,1.276,0,0,0-1.3-.821c-.181,0-.161-.04-.4-.179-.44-.241-1.02-.2-1.381-.4-.9-.5-2.52-.519-2.52-2.04,0-1.24,1.16-2.16,1.921-2.621.179-.1.6-.5.78-.5.74,0,1.38-.38,2.181-.38.879,0,1.719.26,1.719,1.24C387.946,268.97,387.606,269.01,387.406,269.01Z"/><path d="M401.227,277.693a3.235,3.235,0,0,1-.081-.761c0-1.28.281-2.46.281-3.761-.4.42-.761,1.1-1.221,1.3-.14.06-.42.46-.58.58a10.07,10.07,0,0,1-1.26,1.08,4.293,4.293,0,0,1-2.18.861c-1.5,0-1.8-.821-1.8-1.921a6.611,6.611,0,0,1,.98-3.181,2.528,2.528,0,0,0,.26-.52c.08-.28.221-.28.4-.5a7.415,7.415,0,0,1,1.1-1.259c.22-.18.439-.521.66-.62.34-.161.62-.38.96-.561.24-.12.5-.06.72-.26a3.6,3.6,0,0,1,1.08-.28,11.479,11.479,0,0,0,1.421.12c.28,0,.2-.8.66-.8.34,0,.58.48.58.741a2.17,2.17,0,0,1-.1.559,13.709,13.709,0,0,0-.359,2.5c0,.18.02.34.02.52,0,1.24-.281,2.8-.281,3.681,0,.2-.059.38-.059.56,0,.6.12,1,.12,1.7,0,.341-.4.221-.521.3-.1.08-.179.179-.259.179-.121,0-.281-.139-.42-.2Zm-3.461-7.342a8.923,8.923,0,0,0-1.241,1.46,5.077,5.077,0,0,0-1.06,3.1c0,.541.2.961.78.961.6,0,.981-.36,1.481-.541.9-.319,1.6-1.42,2.36-2.08.261-.219.4-.24.5-.6a6.165,6.165,0,0,1,.62-1.121,4.611,4.611,0,0,0,.521-2.06c0-.341-1.2-.421-1.741-.341A6.206,6.206,0,0,0,397.766,270.351Z"/><path d="M407.125,270.191c0,.34.04.7.04,1.06,0,.2-.02.4-.04.6-.18,1.08-.12,2.181-.34,3.261a1.712,1.712,0,0,0-.04.44c0,.34.06.66.06,1.021,0,.5-.6.62-.941.6-.239-.019-.359-.42-.359-.679a5.28,5.28,0,0,1,.14-1.1,1.9,1.9,0,0,0,.02-.481,4.918,4.918,0,0,1,.08-.78l.14-1a1.485,1.485,0,0,0,.019-.28c0-.22-.019-.42-.019-.64,0-.3.04-.6.04-.9,0-.24-.021-.5-.021-.76,0-1.64.281-3.2.441-4.821.04-.54.1-1.66.719-1.66a.821.821,0,0,1,.781.639A22.254,22.254,0,0,0,407.125,270.191Z"/><path d="M415.386,268.691a1.736,1.736,0,0,0-.781.639c-.059.1-.54.42-.679.781a2.617,2.617,0,0,1-.561.82c-.24.24-.42.74-.679,1.08a6.138,6.138,0,0,0-.861,1.961c-.06.76-.26,1.48-.38,2.22-.06.28,0,.56-.341.58-.219.02-.419.221-.6.221a.492.492,0,0,1-.561-.541,2.171,2.171,0,0,1,.08-.5,21.33,21.33,0,0,0,.4-4.441c.04-.62.179-1.3.179-1.94,0-.281-.04-.54-.04-.76,0-.381.261-.941.761-.941.4,0,.58.541.58.96,0,.721-.38,1.481-.38,2.221a1.419,1.419,0,0,0,.14.64c.32-.08.4-.4.521-.68.139-.38.5-.641.66-1.04.139-.381.58-.641.84-.961a6.374,6.374,0,0,1,2.26-1.76,2.483,2.483,0,0,1,1.08-.339c.26-.021.36.279.36.5a.559.559,0,0,1-.54.479C416.306,268.09,415.886,268.47,415.386,268.691Z"/><path d="M416.805,275.152a8.754,8.754,0,0,1,.4-2.921.364.364,0,0,0,.08-.22c0-.18-.139-.3-.139-.54,0-.18.139-.22.259-.28a8.814,8.814,0,0,0,.741-1.26c.8-1.261,1.86-3.161,3.741-3.141,1.42,0,2.46,1.92,2.46,3.141,0,1.18-2.721,1.18-4.04,1.62-.841.28-1.9.16-2.1.9a10.149,10.149,0,0,0-.421,2.56c0,.82.2,1.54.881,1.76,1.72-.159,3.021-1.76,4.161-2.88.32-.32.38-.94.7-1.221.24-.219.58-1.02,1.02-1a.435.435,0,0,1,.44.46c0,.66-.9,1.74-1.1,2.021a3.04,3.04,0,0,0-.42.7c-.12.26-.34.26-.521.5-.159.22-.159.4-.42.54a4.724,4.724,0,0,0-.679.58,5.478,5.478,0,0,1-3.121,1.36,1.808,1.808,0,0,1-1.68-.98A5.92,5.92,0,0,1,416.805,275.152Zm4.661-7.322c-.12.02-.181.161-.32.161-.42.059-.641.46-.92.7a4.232,4.232,0,0,0-1.162,1.92c1.641-.14,4.222-.241,4.222-1.3a1.714,1.714,0,0,0-.62-1.16A1.517,1.517,0,0,0,421.466,267.83Z"/><path d="M432.846,277.693a3.234,3.234,0,0,1-.08-.761c0-1.28.28-2.46.28-3.761-.4.42-.761,1.1-1.221,1.3-.139.06-.42.46-.58.58a10.07,10.07,0,0,1-1.26,1.08,4.293,4.293,0,0,1-2.18.861c-1.5,0-1.8-.821-1.8-1.921a6.611,6.611,0,0,1,.98-3.181,2.478,2.478,0,0,0,.26-.52c.08-.28.221-.28.4-.5a7.366,7.366,0,0,1,1.1-1.259c.22-.18.44-.521.66-.62.34-.161.62-.38.96-.561.24-.12.5-.06.72-.26a3.605,3.605,0,0,1,1.08-.28,11.5,11.5,0,0,0,1.421.12c.28,0,.2-.8.66-.8.34,0,.58.48.58.741a2.207,2.207,0,0,1-.1.559,13.625,13.625,0,0,0-.36,2.5c0,.18.02.34.02.52,0,1.24-.281,2.8-.281,3.681,0,.2-.059.38-.059.56,0,.6.12,1,.12,1.7,0,.341-.4.221-.52.3-.1.08-.18.179-.26.179-.12,0-.281-.139-.42-.2Zm-3.461-7.342a8.865,8.865,0,0,0-1.24,1.46,5.073,5.073,0,0,0-1.061,3.1c0,.541.2.961.78.961.6,0,.981-.36,1.481-.541.9-.319,1.6-1.42,2.36-2.08.261-.219.4-.24.5-.6a6.165,6.165,0,0,1,.62-1.121,4.611,4.611,0,0,0,.521-2.06c0-.341-1.2-.421-1.741-.341A6.206,6.206,0,0,0,429.385,270.351Z"/><path d="M443.025,276.352c0-.941.26-1.78.34-2.74-.38.1-.479.479-.679.759a9.535,9.535,0,0,1-1.021.8c-.32.239-.519.6-.84.76a3.313,3.313,0,0,0-.96.58c-.16.18-.86.24-1.14.32a2.717,2.717,0,0,1-.8.161,2.126,2.126,0,0,1-1.721-1.7,7.9,7.9,0,0,1,.521-2.081c.219-.78.719-1.36.979-2.06a1.7,1.7,0,0,1,.6-.8c.259-.18.32-.54.559-.8.5-.52,1.181-.881,1.641-1.4.1-.1.681-.2.86-.321a4.461,4.461,0,0,1,2.561-.46c.46,0,.34-.3.38-.72.06-.48.12-.96.2-1.441.1-.6.24-2.259.88-2.259.34,0,.56.519.56.82a23.232,23.232,0,0,1-.52,4.74c-.1.341-.08.7-.16,1.041a5,5,0,0,0-.32,1.02,8,8,0,0,1-.24,1.381,17.29,17.29,0,0,0-.32,2.72,17.067,17.067,0,0,0-.2,1.7c0,.26.12.64.12.96,0,.22-.14.38-.14.46,0,.321-.641.54-.921.54-.38,0-.64-.62-.54-.98C442.785,277.033,443.025,276.772,443.025,276.352Zm-3.9-5.541c-.181.24-.561.58-.58.8-.08.8-.941,1.44-.941,2.26,0,.46-.28,1.021-.2,1.361a.809.809,0,0,0,.84.64,4.805,4.805,0,0,0,2.621-1.24c.38-.221.68-.58,1.06-.82.341-.2.62-.761.9-1.1,1-1.18.941-2.76,1.2-4.2a2.6,2.6,0,0,0-.78-.1,3.035,3.035,0,0,0-2.2.78A10.751,10.751,0,0,0,439.125,270.811Z"/><path d="M452.645,272.011c.56-1.24,1.24-4.1,2.4-4.1a.535.535,0,0,1,.58.58c0,.78-.7,1.16-.979,1.82a15.524,15.524,0,0,1-1.3,2.8,7.766,7.766,0,0,0-.7,1.94c-.14.78-.281.66-.72.92a1.479,1.479,0,0,0-.521.66,8.682,8.682,0,0,0-.94,1.721c-.119.34-.319.4-.56.7a6.55,6.55,0,0,0-.96,1.42l-.22.62c-.161.42-.46,1.34-1.06,1.34a.6.6,0,0,1-.62-.56c0-.4.42-.86.56-1.16.5-.7.82-1.52,1.32-2.22a3.741,3.741,0,0,0,.58-1.021,4.679,4.679,0,0,1,.681-1.2,7.3,7.3,0,0,1,.8-1.2,5.178,5.178,0,0,0-1.5-2.161c-.339-.219-.42-.62-.6-1.02a9.687,9.687,0,0,1-.8-1.42c-.1-.24-.38-.221-.5-.5-.181-.381-1-.9-1-2.02a.354.354,0,0,1,.38-.4c.42,0,.86.521,1.04.8.16.3.44.341.559.641.1.24.421.36.5.62a12.822,12.822,0,0,0,1.06,1.841c.521.819,1.1,1.5,1.581,2.36C451.984,273.812,452.425,272.492,452.645,272.011Z"/><path d="M469.025,268.731a7.072,7.072,0,0,1,.281,1.58,6.736,6.736,0,0,1-.241,1.42c-.16.7-.8,1.74-.86,2.1-.02.141-.22.26-.26.4-.1.44-.48.679-.921,1a5.23,5.23,0,0,1-1.16.78,7.641,7.641,0,0,1-3.22.78,1.791,1.791,0,0,1-1.521-1.2c-.08-.2-.3-.46-.319-.681-.04-.4.04-1.019.019-1.16-.04-.5.281-.88.42-1.38l.141-.46a8.406,8.406,0,0,1,1.639-2.18,6.627,6.627,0,0,1,1.481-1.1,3.364,3.364,0,0,1,1.4-.54c.26,0,.561.16.781.16.259,0,.28-.4.56-.4.12,0,.18.02.279.02A1.808,1.808,0,0,1,469.025,268.731Zm-4.161.859c-.179.12-.4.2-.58.321-.2.12-.28.379-.5.5-.3.16-.36.6-.62.88a5.487,5.487,0,0,0-1.16,2.12,1.77,1.77,0,0,0-.141.76c0,1.141.5,1.541,1.541,1.541a5.447,5.447,0,0,0,4.1-2.8,8.092,8.092,0,0,0,.76-2.98c0-.221-.06-.6-.26-.6-.18,0-.42.2-.62.2a5.571,5.571,0,0,0-1.24-.34A2.4,2.4,0,0,0,464.864,269.59Z"/><path d="M477.945,268.51c-.52,0-.759-.26-1.18-.26a3.967,3.967,0,0,0-1.84.7,5.954,5.954,0,0,0-3.061,5.241,5.163,5.163,0,0,0,.36,1.3c.12.42.94.64,1.34.64a4.534,4.534,0,0,0,2.321-1.04c.36-.261.58-.62.9-.881.22-.179.26-.059.72-1.2.141-.359.42-.6.4-.939,0-.1-.059-.241-.059-.361,0-.3.54-.6.779-.52.3.1.3.46.3.72,0,.68-.561,1.281-.74,1.96a3.38,3.38,0,0,1-1.261,1.521c-.42.22-.64.84-1.02.98a3.339,3.339,0,0,0-.76.36,3.818,3.818,0,0,1-1.781.58c-.32,0-.66-.04-.98-.06a2.835,2.835,0,0,1-1.16-1.06,1.749,1.749,0,0,0-.26-.64,3.605,3.605,0,0,1-.26-1.5,5.889,5.889,0,0,1,.94-3.1c.2-.34.26-.72.54-.96a7.937,7.937,0,0,0,.8-.84,6.129,6.129,0,0,1,3.881-1.9c.38,0,1.76.1,1.76.88C478.646,268.29,478.205,268.51,477.945,268.51Z"/><path d="M487.705,268.51c-.52,0-.76-.26-1.181-.26a3.968,3.968,0,0,0-1.839.7,5.954,5.954,0,0,0-3.061,5.241,5.2,5.2,0,0,0,.359,1.3c.121.42.941.64,1.341.64a4.534,4.534,0,0,0,2.321-1.04c.36-.261.58-.62.9-.881.22-.179.26-.059.72-1.2.14-.359.42-.6.4-.939,0-.1-.06-.241-.06-.361,0-.3.541-.6.78-.52.3.1.3.46.3.72,0,.68-.561,1.281-.741,1.96a3.378,3.378,0,0,1-1.26,1.521c-.42.22-.64.84-1.02.98a3.347,3.347,0,0,0-.761.36,3.818,3.818,0,0,1-1.78.58c-.32,0-.66-.04-.98-.06a2.844,2.844,0,0,1-1.161-1.06,1.746,1.746,0,0,0-.259-.64,3.605,3.605,0,0,1-.26-1.5,5.9,5.9,0,0,1,.939-3.1c.2-.34.261-.72.54-.96a7.947,7.947,0,0,0,.8-.84,6.129,6.129,0,0,1,3.881-1.9c.38,0,1.76.1,1.76.88C488.405,268.29,487.965,268.51,487.705,268.51Z"/><path d="M498.565,267.97c0,1.541-.66,3.482-.66,5.222,0,.38-.2.559-.2.86,0,.6.16.819.16,1.84,0,.6-.1,1.221-.6,1.221-.6,0-.7-.54-.7-1.041,0-.7.181-1.361.181-2.06a2.667,2.667,0,0,0-.02-.4c-.521.019-.76.9-1,1.259a15.019,15.019,0,0,1-1.561,1.821,4.414,4.414,0,0,1-2.6,1.121c-.839,0-1.24-.62-1.24-1.5a29.12,29.12,0,0,1,.42-3.62c.12-.921.261-1.822.42-2.741.12-.64-.08-1.46.481-1.92.36.019.82.24.82.62,0,.5-.34,1.059-.34,1.54,0,.96-.341,1.841-.381,2.78-.04.881-.279,1.78-.279,2.681,0,.68.239.98.66.98.439,0,.939-.6,1.06-.6.38,0,.82-.54,1.1-.9a16.98,16.98,0,0,0,1.481-1.921c.259-.479.5-.96.8-1.42a5.6,5.6,0,0,0,.561-1.72l.46-1.84c.1-.381.12-1.061.68-1.061A1.064,1.064,0,0,1,498.565,267.97Z"/><path d="M506.1,268.691a1.733,1.733,0,0,0-.78.639c-.059.1-.54.42-.679.781a2.617,2.617,0,0,1-.561.82c-.24.24-.42.74-.68,1.08a6.158,6.158,0,0,0-.86,1.961c-.061.76-.26,1.48-.38,2.22-.06.28,0,.56-.341.58-.219.02-.42.221-.6.221a.492.492,0,0,1-.561-.541,2.171,2.171,0,0,1,.08-.5,21.4,21.4,0,0,0,.4-4.441c.04-.62.179-1.3.179-1.94,0-.281-.04-.54-.04-.76,0-.381.261-.941.761-.941.4,0,.58.541.58.96,0,.721-.38,1.481-.38,2.221a1.419,1.419,0,0,0,.14.64c.32-.08.4-.4.52-.68.14-.38.5-.641.66-1.04.14-.381.581-.641.84-.961a6.386,6.386,0,0,1,2.261-1.76,2.483,2.483,0,0,1,1.08-.339c.26-.021.359.279.359.5a.559.559,0,0,1-.54.479C507.024,268.09,506.6,268.47,506.1,268.691Z"/><path d="M507.522,275.152a8.724,8.724,0,0,1,.4-2.921.377.377,0,0,0,.08-.22c0-.18-.141-.3-.141-.54,0-.18.141-.22.261-.28a8.824,8.824,0,0,0,.74-1.26c.8-1.261,1.861-3.161,3.741-3.141,1.42,0,2.46,1.92,2.46,3.141,0,1.18-2.72,1.18-4.041,1.62-.839.28-1.9.16-2.1.9a10.154,10.154,0,0,0-.42,2.56c0,.82.2,1.54.88,1.76,1.721-.159,3.02-1.76,4.161-2.88.32-.32.38-.94.7-1.221.24-.219.58-1.02,1.021-1a.434.434,0,0,1,.439.46c0,.66-.9,1.74-1.1,2.021a3.036,3.036,0,0,0-.419.7c-.121.26-.341.26-.521.5-.16.22-.16.4-.42.54a4.741,4.741,0,0,0-.681.58,5.469,5.469,0,0,1-3.12,1.36,1.808,1.808,0,0,1-1.68-.98A5.92,5.92,0,0,1,507.522,275.152Zm4.662-7.322c-.121.02-.18.161-.321.161-.42.059-.639.46-.92.7a4.22,4.22,0,0,0-1.16,1.92c1.641-.14,4.221-.241,4.221-1.3a1.714,1.714,0,0,0-.62-1.16A1.519,1.519,0,0,0,512.184,267.83Z"/><path d="M523.244,276.352c0-.941.26-1.78.34-2.74-.38.1-.48.479-.68.759a9.426,9.426,0,0,1-1.02.8c-.321.239-.52.6-.84.76a3.313,3.313,0,0,0-.96.58c-.16.18-.86.24-1.141.32a2.7,2.7,0,0,1-.8.161,2.126,2.126,0,0,1-1.721-1.7,7.94,7.94,0,0,1,.52-2.081c.22-.78.72-1.36.98-2.06a1.7,1.7,0,0,1,.6-.8c.26-.18.321-.54.56-.8.5-.52,1.181-.881,1.641-1.4.1-.1.68-.2.86-.321a4.461,4.461,0,0,1,2.561-.46c.459,0,.339-.3.379-.72.061-.48.121-.96.2-1.441.1-.6.24-2.259.879-2.259.34,0,.561.519.561.82a23.232,23.232,0,0,1-.52,4.74c-.1.341-.081.7-.161,1.041a5.062,5.062,0,0,0-.319,1.02,8,8,0,0,1-.24,1.381,17.41,17.41,0,0,0-.321,2.72c-.059.58-.2,1.14-.2,1.7,0,.26.12.64.12.96,0,.22-.139.38-.139.46,0,.321-.641.54-.921.54-.38,0-.64-.62-.54-.98C523,277.033,523.244,276.772,523.244,276.352Zm-3.9-5.541c-.181.24-.561.58-.58.8-.08.8-.941,1.44-.941,2.26,0,.46-.28,1.021-.2,1.361a.809.809,0,0,0,.84.64,4.809,4.809,0,0,0,2.621-1.24c.38-.221.68-.58,1.06-.82.34-.2.62-.761.9-1.1,1-1.18.94-2.76,1.2-4.2a2.607,2.607,0,0,0-.78-.1,3.033,3.033,0,0,0-2.2.78A10.751,10.751,0,0,0,519.344,270.811Z"/><path d="M299.864,114.917a2.219,2.219,0,0,0-.7-1.56,2.432,2.432,0,0,0-1.26-.46c-1.581,0-2.5,1.64-3.361,2.58-.1.261-.16.52-.26.78-.08.181-.32.381-.32.561a3.777,3.777,0,0,1-.1.66.494.494,0,0,1,.02.16c0,.16-.26.3-.26.76,0,1.78,0,4.361,2.581,4.361a5.523,5.523,0,0,0,3.38-1.4c.44-.38.78-1.16,1.22-1.16.24,0,.72.04.74.359a2.266,2.266,0,0,1-1.02,1.3,13.393,13.393,0,0,1-1.36,1.02,3.939,3.939,0,0,0-.64.42,2.681,2.681,0,0,1-.961.38,4.635,4.635,0,0,1-1.52.34,1.869,1.869,0,0,1-.46-.04,4.188,4.188,0,0,1-2.3-1.58,8.35,8.35,0,0,1-.66-3.461,5.513,5.513,0,0,1,.34-2.38,4.872,4.872,0,0,0,.26-.761,7.962,7.962,0,0,1,1.8-2.52,4.65,4.65,0,0,1,3.061-1.46,4.142,4.142,0,0,1,1.64.58c.22.18.26.479.38.72.1.24.28.26.28.5a2.273,2.273,0,0,0,.2.72c.1.2.3.24.3.5,0,.281-.18.62-.48.64C300.024,115.417,299.864,115.217,299.864,114.917Z"/><path d="M310.664,115.818a7.082,7.082,0,0,1,.28,1.58,6.794,6.794,0,0,1-.24,1.42c-.16.7-.8,1.74-.86,2.1-.02.141-.22.26-.26.4-.1.44-.48.679-.92,1a5.288,5.288,0,0,1-1.161.78,7.641,7.641,0,0,1-3.22.78,1.792,1.792,0,0,1-1.521-1.2c-.08-.2-.3-.46-.32-.681-.04-.4.04-1.019.02-1.16-.04-.5.28-.88.42-1.38l.14-.46a8.451,8.451,0,0,1,1.641-2.18,6.569,6.569,0,0,1,1.48-1.1,3.351,3.351,0,0,1,1.4-.54c.26,0,.561.16.781.16.259,0,.28-.4.56-.4.12,0,.18.02.28.02A1.808,1.808,0,0,1,310.664,115.818Zm-4.161.859c-.18.12-.4.2-.58.32-.2.121-.28.38-.5.5-.3.161-.36.6-.62.881a5.473,5.473,0,0,0-1.16,2.12,1.77,1.77,0,0,0-.141.76c0,1.141.5,1.541,1.541,1.541a5.447,5.447,0,0,0,4.1-2.8,8.1,8.1,0,0,0,.76-2.98c0-.221-.06-.6-.26-.6-.18,0-.42.2-.62.2a5.571,5.571,0,0,0-1.24-.34A2.393,2.393,0,0,0,306.5,116.677Z"/><path d="M320.624,119.638c.02.2.1.42.1.62,0,.28-.18.481-.18.761,0,.14.02.26.02.4,0,.5-.1.561-.1,1.1,0,.26-.02.52-.02.78,0,.3-.54.64-1,.64-.3,0-.441-.22-.441-.5,0-.48.181-.78.181-1.18,0-.52.26-.9.26-1.461v-.4c0-.58.06-1.141.06-1.7,0-.24.1-2.361-.62-2.361-1.121,0-1.141.861-2.181,1.441-.38.2-.5.5-.76.86a7.923,7.923,0,0,0-1.54,3.7,8.859,8.859,0,0,0-.18,1.16c0,1.281-.5.62-.761,1a.3.3,0,0,1-.28.14c-.34,0-.44-.24-.44-.54a2.7,2.7,0,0,1,.22-.9,6.624,6.624,0,0,0,.28-2.26c0-.46.04-.721.02-1.221-.02-.38,0-.88,0-1.74a8.6,8.6,0,0,0-.08-1.24c-.02-.2-.1-.46-.1-.681,0-.319.5-.819.759-.7.361.159.5,1.1.5,1.74,0,1.08-.02.96-.02,2.021.74-.241,1.14-1.681,1.98-2.322.82-.62,1.62-1.62,2.72-1.62,1.081,0,1.541,1.141,1.541,2.7C320.6,118.458,320.584,119.058,320.624,119.638Z"/><path d="M329.063,123.439c0-.941.26-1.78.34-2.74-.38.1-.48.479-.68.759a9.426,9.426,0,0,1-1.02.8c-.32.239-.52.6-.841.76a3.353,3.353,0,0,0-.96.58c-.16.18-.86.24-1.14.32a2.709,2.709,0,0,1-.8.16,2.126,2.126,0,0,1-1.721-1.7,7.941,7.941,0,0,1,.521-2.081c.219-.78.719-1.36.98-2.06a1.7,1.7,0,0,1,.6-.8c.261-.18.32-.54.56-.8.5-.52,1.18-.881,1.641-1.4.1-.1.68-.2.859-.321a4.465,4.465,0,0,1,2.561-.46c.461,0,.341-.3.381-.72.059-.48.119-.96.2-1.441.1-.6.24-2.26.881-2.26.34,0,.559.52.559.821a23.229,23.229,0,0,1-.519,4.74c-.1.341-.08.7-.16,1.041a5.008,5.008,0,0,0-.321,1.02,7.967,7.967,0,0,1-.24,1.38,17.317,17.317,0,0,0-.319,2.721,16.777,16.777,0,0,0-.2,1.7c0,.26.12.64.12.96,0,.22-.141.38-.141.46,0,.321-.64.54-.92.54-.38,0-.64-.62-.54-.98C328.823,124.119,329.063,123.859,329.063,123.439Zm-3.9-5.541c-.18.24-.559.58-.58.8-.08.8-.94,1.44-.94,2.26,0,.46-.28,1.021-.2,1.361a.811.811,0,0,0,.841.64,4.8,4.8,0,0,0,2.62-1.24c.38-.221.681-.58,1.061-.82.34-.2.62-.761.9-1.1,1-1.18.941-2.761,1.2-4.2a2.608,2.608,0,0,0-.78-.1,3.034,3.034,0,0,0-2.2.781A10.793,10.793,0,0,0,325.162,117.9Z"/><path d="M335.183,116.978c0,1.58-.341,3.08-.341,4.56,0,.361.04.721.04,1.1,0,.96.1,1.641-.88,1.641-.4,0-.481-.441-.481-1.041a25.883,25.883,0,0,1,.46-4.681c.261-1.641-.219-4.081.881-4.081.26,0,.68.12.7.38C335.562,115.517,335.183,116.238,335.183,116.978Zm.039-4.482a.949.949,0,0,1-.54.161.573.573,0,0,1-.58-.6c0-.521.58-.721,1.16-.721.44,0,.58.16.58.34C335.842,112.277,335.622,112.2,335.222,112.5Z"/><path d="M341.223,111.477c0,.64-.26,1.3-.26,1.9,0,.32.12.64.12.94,0,.36-.04.74-.04,1.1a16.808,16.808,0,0,0,4-.719.469.469,0,0,1,.159-.021.241.241,0,0,1,.261.26c0,.921-3.081,1.381-3.522,1.48l-.679.181a.3.3,0,0,0-.241.34c0,.12.04.28.04.42,0,1.58-.3,3.16-.3,4.68,0,.2.059.6.059.961a1.207,1.207,0,0,1-1.139,1.14.875.875,0,0,1-.661-.46c0-.18.26-.42.34-.52a1.151,1.151,0,0,0,.22-.68,29.987,29.987,0,0,0,.341-5.022c0-.359-.08-.74-.4-.74a5.473,5.473,0,0,0-2.661.521,1.549,1.549,0,0,1-.719.28c-.281,0-.5-.181-.5-.36,0-.3.5-.661.679-.821a3.367,3.367,0,0,1,1.881-.639l1.6-.181c.1-.04.12-.239.12-.46,0-.28-.04-.62-.04-.76,0-1.02.059-2.06.059-3.081,0-.26.521-.479.9-.479a.442.442,0,0,1,.3.08A2.475,2.475,0,0,1,341.223,111.477Z"/><path d="M347.422,116.978c0,1.58-.34,3.08-.34,4.56,0,.361.04.721.04,1.1,0,.96.1,1.641-.881,1.641-.4,0-.479-.441-.479-1.041a25.793,25.793,0,0,1,.46-4.681c.259-1.641-.22-4.081.88-4.081.26,0,.68.12.7.38C347.8,115.517,347.422,116.238,347.422,116.978Zm.04-4.482a.949.949,0,0,1-.54.161.573.573,0,0,1-.58-.6c0-.521.58-.721,1.16-.721.44,0,.58.16.58.34C348.082,112.277,347.862,112.2,347.462,112.5Z"/><path d="M357.623,115.818a7.082,7.082,0,0,1,.28,1.58,6.794,6.794,0,0,1-.24,1.42c-.16.7-.8,1.74-.86,2.1-.021.141-.22.26-.26.4-.1.44-.481.679-.921,1a5.278,5.278,0,0,1-1.16.78,7.642,7.642,0,0,1-3.221.78,1.791,1.791,0,0,1-1.52-1.2c-.08-.2-.3-.46-.32-.681-.04-.4.04-1.019.02-1.16-.04-.5.28-.88.42-1.38l.14-.46a8.417,8.417,0,0,1,1.64-2.18,6.574,6.574,0,0,1,1.481-1.1,3.351,3.351,0,0,1,1.4-.54c.26,0,.56.16.78.16.26,0,.28-.4.561-.4.12,0,.179.02.279.02A1.811,1.811,0,0,1,357.623,115.818Zm-4.161.859c-.18.12-.4.2-.58.32-.2.121-.28.38-.5.5-.3.161-.361.6-.62.881a5.473,5.473,0,0,0-1.16,2.12,1.77,1.77,0,0,0-.141.76c0,1.141.5,1.541,1.541,1.541a5.447,5.447,0,0,0,4.1-2.8,8.121,8.121,0,0,0,.759-2.98c0-.221-.059-.6-.259-.6-.18,0-.42.2-.621.2a5.554,5.554,0,0,0-1.24-.34A2.392,2.392,0,0,0,353.462,116.677Z"/><path d="M367.583,119.638c.021.2.1.42.1.62,0,.28-.181.481-.181.761,0,.14.02.26.02.4,0,.5-.1.561-.1,1.1,0,.26-.02.52-.02.78,0,.3-.54.64-1,.64-.3,0-.44-.22-.44-.5,0-.48.18-.78.18-1.18,0-.52.26-.9.26-1.461v-.4c0-.58.06-1.141.06-1.7,0-.24.1-2.361-.62-2.361-1.12,0-1.141.861-2.181,1.441-.38.2-.5.5-.76.86a7.923,7.923,0,0,0-1.54,3.7,8.859,8.859,0,0,0-.18,1.16c0,1.281-.5.62-.76,1a.3.3,0,0,1-.28.14c-.34,0-.441-.24-.441-.54a2.68,2.68,0,0,1,.221-.9,6.623,6.623,0,0,0,.279-2.26c0-.46.04-.721.021-1.221-.021-.38,0-.88,0-1.74a8.743,8.743,0,0,0-.08-1.24,6.67,6.67,0,0,1-.1-.681c0-.319.5-.819.76-.7.36.159.5,1.1.5,1.74,0,1.08-.02.96-.02,2.021.739-.241,1.14-1.681,1.981-2.322.819-.62,1.62-1.62,2.719-1.62,1.081,0,1.541,1.141,1.541,2.7C367.563,118.458,367.543,119.058,367.583,119.638Z"/><path d="M376.343,124.78a3.234,3.234,0,0,1-.08-.761c0-1.28.28-2.46.28-3.761-.4.42-.761,1.1-1.221,1.3-.139.06-.42.46-.58.58a10.07,10.07,0,0,1-1.26,1.08,4.292,4.292,0,0,1-2.18.86c-1.5,0-1.8-.82-1.8-1.92a6.611,6.611,0,0,1,.98-3.181,2.478,2.478,0,0,0,.26-.52c.08-.28.221-.28.4-.5a7.328,7.328,0,0,1,1.1-1.259c.22-.18.44-.521.66-.621.34-.16.62-.379.96-.56.241-.12.5-.06.72-.26a3.605,3.605,0,0,1,1.08-.28,11.692,11.692,0,0,0,1.421.12c.28,0,.2-.8.66-.8.34,0,.58.48.58.74a2.206,2.206,0,0,1-.1.56,13.625,13.625,0,0,0-.36,2.5c0,.18.02.34.02.52,0,1.24-.28,2.8-.28,3.681,0,.2-.06.38-.06.56,0,.6.12,1,.12,1.7,0,.341-.4.221-.52.3-.1.08-.18.179-.26.179-.12,0-.28-.139-.42-.2Zm-3.461-7.342a8.824,8.824,0,0,0-1.24,1.46,5.073,5.073,0,0,0-1.061,3.1c0,.54.2.961.78.961.6,0,.981-.36,1.481-.541.9-.319,1.6-1.42,2.36-2.08.261-.219.4-.24.5-.6a6.165,6.165,0,0,1,.62-1.121,4.614,4.614,0,0,0,.521-2.06c0-.341-1.2-.421-1.74-.341A6.2,6.2,0,0,0,372.882,117.438Z"/><path d="M382.241,117.278c0,.34.04.7.04,1.06a5.756,5.756,0,0,1-.04.6c-.179,1.08-.119,2.181-.34,3.261a1.712,1.712,0,0,0-.04.44c0,.34.061.66.061,1.021,0,.5-.6.62-.941.6-.24-.019-.36-.42-.36-.68a5.35,5.35,0,0,1,.141-1.1,1.9,1.9,0,0,0,.019-.481,4.918,4.918,0,0,1,.08-.78l.14-1a1.412,1.412,0,0,0,.02-.28c0-.22-.02-.42-.02-.64,0-.3.04-.6.04-.9,0-.24-.02-.5-.02-.76,0-1.641.281-3.2.441-4.821.04-.54.1-1.66.72-1.66a.822.822,0,0,1,.78.639A22.207,22.207,0,0,0,382.241,117.278Z"/><path d="M392.321,122.619c-.12.7.241,1.96-.92,1.96-.421,0-.56-.28-.56-.64a2.122,2.122,0,0,1,.12-.68,10.88,10.88,0,0,0,.36-2.9,1.934,1.934,0,0,0,0-.481c-.06-.16-.2-.28-.2-.48s.16-.32.26-.52a3.231,3.231,0,0,0,.2-1.24c0-.44-.02-.86-.02-1.28,0-.54.04-1.08.04-1.621,0-.28.04-1.32-.22-1.32a1.7,1.7,0,0,1-.38.119.643.643,0,0,1-.641-.4c.021-.7.781-.881,1-1,.18-.1.14-.28.24-.44.1-.2.4-.26.68-.26.46,0,.72.1,1.04.1.58,0,1.141-.12,1.721-.12a5.2,5.2,0,0,1,2.26.42,1.451,1.451,0,0,0,.56.2c.281.061.38.34.6.541.46.419.779.5.779,1.5a5.083,5.083,0,0,1-.46,2.081c-.359.379-.519,1.04-.78,1.179a12.022,12.022,0,0,0-1.3,1.1l-.48.36a7.776,7.776,0,0,1-3.741,1.16A23.75,23.75,0,0,1,392.321,122.619Zm4.661-5.961c.22-.22.3-.54.54-.741a2.573,2.573,0,0,0,.64-1.78c0-.68-1.34-1.44-2.16-1.52-.6-.04-1.16-.22-1.74-.22a3.139,3.139,0,0,0-1.58.46c.04.42.08,1.06.08,1.4,0,1.2-.12,2.42-.12,3.621,0,.34.019.68.04,1.02a7.571,7.571,0,0,0,2.78-.861C395.942,117.537,396.482,117.138,396.982,116.658Z"/><path d="M405.682,115.778a1.736,1.736,0,0,0-.781.639c-.059.1-.54.42-.679.781a2.617,2.617,0,0,1-.561.82c-.24.24-.42.74-.68,1.08a6.158,6.158,0,0,0-.86,1.961c-.06.76-.26,1.479-.38,2.22-.06.28,0,.56-.341.58-.219.02-.42.22-.6.22a.491.491,0,0,1-.561-.54,2.171,2.171,0,0,1,.08-.5,21.33,21.33,0,0,0,.4-4.441c.04-.62.179-1.3.179-1.94,0-.281-.04-.54-.04-.76,0-.381.261-.941.761-.941.4,0,.58.54.58.96,0,.721-.38,1.481-.38,2.221a1.422,1.422,0,0,0,.14.64c.32-.08.4-.4.52-.68.14-.38.5-.641.661-1.04.139-.381.58-.641.839-.961a6.386,6.386,0,0,1,2.261-1.76,2.488,2.488,0,0,1,1.08-.34c.26-.02.36.28.36.5a.56.56,0,0,1-.54.48C406.6,115.177,406.182,115.557,405.682,115.778Z"/><path d="M415.422,115.818a7.082,7.082,0,0,1,.28,1.58,6.794,6.794,0,0,1-.24,1.42c-.16.7-.8,1.74-.86,2.1-.02.141-.22.26-.26.4-.1.44-.481.679-.92,1a5.3,5.3,0,0,1-1.16.78,7.645,7.645,0,0,1-3.221.78,1.789,1.789,0,0,1-1.52-1.2A3,3,0,0,1,407.2,122c-.04-.4.04-1.019.021-1.16-.04-.5.279-.88.42-1.38l.139-.46a8.451,8.451,0,0,1,1.641-2.18,6.569,6.569,0,0,1,1.48-1.1,3.355,3.355,0,0,1,1.4-.54c.26,0,.559.16.78.16.26,0,.279-.4.56-.4.12,0,.18.02.28.02A1.808,1.808,0,0,1,415.422,115.818Zm-4.16.859c-.181.12-.4.2-.581.32-.2.121-.28.38-.5.5-.3.161-.36.6-.62.881a5.5,5.5,0,0,0-1.161,2.12,1.8,1.8,0,0,0-.139.76c0,1.141.5,1.541,1.54,1.541a5.441,5.441,0,0,0,4.1-2.8,8.084,8.084,0,0,0,.761-2.98c0-.221-.06-.6-.26-.6-.18,0-.421.2-.62.2a5.587,5.587,0,0,0-1.24-.34A2.39,2.39,0,0,0,411.262,116.677Z"/><path d="M418.82,124.559c-.38,0-.9-.48-1.24-.66-.5-.26-.479-.48-.479-1,0-.42.239-.78.279-1.2a14.967,14.967,0,0,1,.36-3.141.938.938,0,0,0,.08-.4c0-.24-.059-.52-.059-.84a20.106,20.106,0,0,1,.4-2.881,12.962,12.962,0,0,0,.12-2.181,5.289,5.289,0,0,1-.04-.979.472.472,0,0,1,.58-.46c1.04.159.58,2,.481,2.66-.04.28-.1.54-.14.8-.06.5-.08,1.02-.14,1.52a9.325,9.325,0,0,0-.041,1.28c0,.441-.2,1-.2,1.481a1.289,1.289,0,0,0,.061.4,4.155,4.155,0,0,0,1-1.661,5.52,5.52,0,0,1,.54-.8,2.557,2.557,0,0,1,.62-.86,3.366,3.366,0,0,1,1.961-.78c1.58,0,2.74,1.581,2.74,3.3a12.461,12.461,0,0,1-.36,2.1,4.7,4.7,0,0,1-.58,1.141c-.42.88-1.481,2.5-2.761,2.841A9.5,9.5,0,0,1,418.82,124.559Zm4.742-3.1a8.656,8.656,0,0,0,.44-1.04,4.425,4.425,0,0,0,.6-2.2c0-1-.52-2.421-1.88-2.421-.8,0-1.521.841-1.861,1.521-.12.259-.3.52-.4.759a21.45,21.45,0,0,0-1.74,3.682c0,.34-.241.88-.241,1.22,0,.42.441.58.981.58a18.456,18.456,0,0,0,2.06-.28A7.741,7.741,0,0,0,423.562,121.458Z"/><path d="M433.861,124.78a3.343,3.343,0,0,1-.08-.761c0-1.28.281-2.46.281-3.761-.4.42-.76,1.1-1.22,1.3-.141.06-.421.46-.58.58a10.156,10.156,0,0,1-1.261,1.08,4.292,4.292,0,0,1-2.181.86c-1.5,0-1.8-.82-1.8-1.92a6.61,6.61,0,0,1,.979-3.181,2.532,2.532,0,0,0,.261-.52c.08-.28.219-.28.4-.5a7.464,7.464,0,0,1,1.1-1.259c.219-.18.44-.521.66-.621.34-.16.62-.379.96-.56.24-.12.5-.06.721-.26a3.589,3.589,0,0,1,1.08-.28,11.66,11.66,0,0,0,1.42.12c.28,0,.2-.8.66-.8.34,0,.58.48.58.74a2.206,2.206,0,0,1-.1.56,13.712,13.712,0,0,0-.36,2.5c0,.18.02.34.02.52,0,1.24-.28,2.8-.28,3.681,0,.2-.06.38-.06.56,0,.6.12,1,.12,1.7,0,.341-.4.221-.52.3-.1.08-.181.179-.261.179-.119,0-.279-.139-.42-.2Zm-3.46-7.342a8.922,8.922,0,0,0-1.24,1.46,5.064,5.064,0,0,0-1.06,3.1c0,.54.2.961.78.961.6,0,.979-.36,1.48-.541.9-.319,1.6-1.42,2.361-2.08.259-.219.4-.24.5-.6a6.1,6.1,0,0,1,.62-1.121,4.624,4.624,0,0,0,.519-2.06c0-.341-1.2-.421-1.74-.341A6.214,6.214,0,0,0,430.4,117.438Z"/><path d="M439.32,124.559c-.38,0-.9-.48-1.24-.66-.5-.26-.479-.48-.479-1,0-.42.239-.78.279-1.2a14.967,14.967,0,0,1,.36-3.141.938.938,0,0,0,.08-.4c0-.24-.059-.52-.059-.84a20.106,20.106,0,0,1,.4-2.881,12.962,12.962,0,0,0,.12-2.181,5.289,5.289,0,0,1-.04-.979.472.472,0,0,1,.58-.46c1.04.159.58,2,.481,2.66-.04.28-.1.54-.14.8-.06.5-.08,1.02-.14,1.52a9.325,9.325,0,0,0-.041,1.28c0,.441-.2,1-.2,1.481a1.289,1.289,0,0,0,.061.4,4.155,4.155,0,0,0,1-1.661,5.52,5.52,0,0,1,.54-.8,2.557,2.557,0,0,1,.62-.86,3.366,3.366,0,0,1,1.961-.78c1.58,0,2.74,1.581,2.74,3.3a12.461,12.461,0,0,1-.36,2.1,4.7,4.7,0,0,1-.58,1.141c-.42.88-1.481,2.5-2.761,2.841A9.5,9.5,0,0,1,439.32,124.559Zm4.742-3.1a8.656,8.656,0,0,0,.44-1.04,4.425,4.425,0,0,0,.6-2.2c0-1-.52-2.421-1.88-2.421-.8,0-1.521.841-1.861,1.521-.12.259-.3.52-.4.759a21.45,21.45,0,0,0-1.74,3.682c0,.34-.241.88-.241,1.22,0,.42.441.58.981.58a18.456,18.456,0,0,0,2.06-.28A7.741,7.741,0,0,0,444.062,121.458Z"/><path d="M449.661,116.978c0,1.58-.341,3.08-.341,4.56,0,.361.04.721.04,1.1,0,.96.1,1.641-.88,1.641-.4,0-.48-.441-.48-1.041a25.793,25.793,0,0,1,.46-4.681c.261-1.641-.22-4.081.881-4.081.26,0,.68.12.7.38C450.041,115.517,449.661,116.238,449.661,116.978Zm.039-4.482a.947.947,0,0,1-.54.161.573.573,0,0,1-.58-.6c0-.521.58-.721,1.16-.721.441,0,.58.16.58.34C450.32,112.277,450.1,112.2,449.7,112.5Z"/><path d="M453.881,117.278c0,.34.04.7.04,1.06,0,.2-.021.4-.04.6-.18,1.08-.12,2.181-.34,3.261a1.712,1.712,0,0,0-.04.44c0,.34.06.66.06,1.021,0,.5-.6.62-.941.6-.239-.019-.359-.42-.359-.68a5.344,5.344,0,0,1,.139-1.1,1.9,1.9,0,0,0,.021-.481,4.918,4.918,0,0,1,.08-.78l.14-1a1.485,1.485,0,0,0,.019-.28c0-.22-.019-.42-.019-.64,0-.3.04-.6.04-.9,0-.24-.021-.5-.021-.76a48.181,48.181,0,0,1,.441-4.821c.04-.54.1-1.66.719-1.66a.821.821,0,0,1,.781.639A22.254,22.254,0,0,0,453.881,117.278Z"/><path d="M458.36,116.978c0,1.58-.339,3.08-.339,4.56,0,.361.04.721.04,1.1,0,.96.1,1.641-.881,1.641-.4,0-.48-.441-.48-1.041a25.793,25.793,0,0,1,.46-4.681c.26-1.641-.22-4.081.88-4.081.261,0,.681.12.7.38C458.74,115.517,458.36,116.238,458.36,116.978Zm.04-4.482a.944.944,0,0,1-.54.161.573.573,0,0,1-.58-.6c0-.521.58-.721,1.16-.721.441,0,.581.16.581.34C459.021,112.277,458.8,112.2,458.4,112.5Z"/><path d="M464.4,111.477c0,.64-.259,1.3-.259,1.9,0,.32.12.64.12.94,0,.36-.04.74-.04,1.1a16.808,16.808,0,0,0,4-.719.466.466,0,0,1,.159-.021.241.241,0,0,1,.261.26c0,.921-3.081,1.381-3.522,1.48l-.68.181a.3.3,0,0,0-.24.34c0,.12.04.28.04.42,0,1.58-.3,3.16-.3,4.68,0,.2.06.6.06.961a1.207,1.207,0,0,1-1.14,1.14.875.875,0,0,1-.66-.46c0-.18.26-.42.34-.52a1.151,1.151,0,0,0,.22-.68,29.987,29.987,0,0,0,.341-5.022c0-.359-.08-.74-.4-.74a5.473,5.473,0,0,0-2.661.521,1.548,1.548,0,0,1-.72.28c-.28,0-.5-.181-.5-.36,0-.3.5-.661.68-.821a3.367,3.367,0,0,1,1.881-.639l1.6-.181c.1-.04.121-.239.121-.46,0-.28-.04-.62-.04-.76,0-1.02.059-2.06.059-3.081,0-.26.521-.479.9-.479a.437.437,0,0,1,.3.08A2.435,2.435,0,0,1,464.4,111.477Z"/><path d="M474.1,119.1c.56-1.24,1.24-4.1,2.4-4.1a.535.535,0,0,1,.58.58c0,.781-.7,1.161-.979,1.821a15.524,15.524,0,0,1-1.3,2.8,7.766,7.766,0,0,0-.7,1.94c-.14.78-.281.66-.72.92a1.486,1.486,0,0,0-.521.66,8.682,8.682,0,0,0-.94,1.721c-.119.34-.319.4-.56.7a6.55,6.55,0,0,0-.96,1.42l-.22.62c-.16.42-.46,1.34-1.06,1.34a.6.6,0,0,1-.62-.56c0-.4.42-.86.56-1.16.5-.7.82-1.52,1.32-2.221a3.721,3.721,0,0,0,.58-1.02,4.679,4.679,0,0,1,.681-1.2,7.254,7.254,0,0,1,.8-1.2,5.169,5.169,0,0,0-1.5-2.161c-.339-.219-.419-.62-.6-1.02a9.687,9.687,0,0,1-.8-1.42c-.1-.24-.38-.221-.5-.5-.181-.381-1-.9-1-2.021a.353.353,0,0,1,.38-.4c.42,0,.86.521,1.04.8.16.3.44.341.56.64.1.241.42.361.5.621a12.656,12.656,0,0,0,1.059,1.84c.521.82,1.1,1.5,1.581,2.361C473.44,120.9,473.881,119.578,474.1,119.1Z"/><path d="M491.3,112.456c-.24,0-.521-.059-.8-.059a16.08,16.08,0,0,0-4.681,1.139,9.544,9.544,0,0,1-.08,1.122,4.348,4.348,0,0,0,.06.639,16.8,16.8,0,0,0-.22,1.881c0,.38.061.74.32.74a13.94,13.94,0,0,0,1.821-.6,19.713,19.713,0,0,1,1.96-.38,7.444,7.444,0,0,1,1.14-.181c.22,0,.38.061.38.2,0,.481-1.04.861-1.54.981l-1.341.34a14.209,14.209,0,0,1-1.559.5c-.381.04-.6.341-.961.44l.261,4.421c.019.24-.7.521-.821.521a.826.826,0,0,1-.5-.221c-.02-.239-.02-.5-.02-.74v-1c0-.92.08-2.861-.26-2.961-.3-.079-.32-.22-.32-.52,0-.34.4-.46.4-.761,0-.079-.02-.159-.02-.239,0-.12.06-.2.06-.32,0-.26-.08-.58-.08-.821,0-.74.1-1.64.14-2.36a.4.4,0,0,0-.22-.04c-.12,0-.28.02-.42.02a.328.328,0,0,1-.34-.36c0-1.32,2.1-1.461,2.641-1.621a17.215,17.215,0,0,1,4.6-.8c.361,0,.92.161.941.38C491.842,112.336,491.661,112.456,491.3,112.456Z"/><path d="M500.281,115.818a7.072,7.072,0,0,1,.281,1.58,6.8,6.8,0,0,1-.241,1.42c-.16.7-.8,1.74-.86,2.1-.021.141-.22.26-.26.4-.1.44-.48.679-.921,1a5.23,5.23,0,0,1-1.16.78,7.642,7.642,0,0,1-3.221.78,1.791,1.791,0,0,1-1.52-1.2c-.08-.2-.3-.46-.319-.681-.04-.4.04-1.019.019-1.16-.04-.5.28-.88.42-1.38l.141-.46a8.406,8.406,0,0,1,1.639-2.18,6.6,6.6,0,0,1,1.481-1.1,3.351,3.351,0,0,1,1.4-.54c.26,0,.561.16.78.16.26,0,.281-.4.561-.4.12,0,.18.02.279.02A1.81,1.81,0,0,1,500.281,115.818Zm-4.161.859c-.18.12-.4.2-.58.32-.2.121-.28.38-.5.5-.3.161-.36.6-.62.881a5.487,5.487,0,0,0-1.16,2.12,1.77,1.77,0,0,0-.141.76c0,1.141.5,1.541,1.541,1.541a5.447,5.447,0,0,0,4.1-2.8,8.1,8.1,0,0,0,.76-2.98c0-.221-.06-.6-.26-.6-.18,0-.42.2-.62.2a5.567,5.567,0,0,0-1.241-.34A2.392,2.392,0,0,0,496.12,116.677Z"/><path d="M507.8,115.778a1.733,1.733,0,0,0-.78.639c-.061.1-.541.42-.681.781a2.6,2.6,0,0,1-.56.82c-.24.24-.421.74-.68,1.08a6.16,6.16,0,0,0-.861,1.961c-.059.76-.26,1.479-.38,2.22-.059.28,0,.56-.339.58-.22.02-.42.22-.6.22a.491.491,0,0,1-.56-.54,2.171,2.171,0,0,1,.08-.5,21.331,21.331,0,0,0,.4-4.441c.04-.62.181-1.3.181-1.94,0-.281-.041-.54-.041-.76,0-.381.26-.941.76-.941.4,0,.58.54.58.96,0,.721-.38,1.481-.38,2.221a1.422,1.422,0,0,0,.14.64c.32-.08.4-.4.521-.68.139-.38.5-.641.66-1.04.139-.381.58-.641.84-.961a6.391,6.391,0,0,1,2.26-1.76,2.5,2.5,0,0,1,1.08-.34c.261-.02.361.28.361.5a.561.561,0,0,1-.54.48C508.721,115.177,508.3,115.557,507.8,115.778Z"/><path d="M510.979,116.818a21.744,21.744,0,0,0,.1,2.54,2.954,2.954,0,0,0,.74-1.2,10.369,10.369,0,0,1,.8-1.56,6.169,6.169,0,0,1,1.36-1.581,2.16,2.16,0,0,1,.94-.34,1.789,1.789,0,0,1,1.12.641c.7.7.78,2.12.94,3.04a8.8,8.8,0,0,1,.621-.88,5.944,5.944,0,0,1,.54-.7c.28-.26.48-.58.76-.8a2.6,2.6,0,0,1,1.58-.641c1.321,0,2.04,1.54,2.04,2.941,0,1-.259,2-.3,3.02a6.653,6.653,0,0,1-.441,1.761c-.1.32-.019.88-.319.98a3.72,3.72,0,0,1-.941.22c-.16-.019-.16-.32-.16-.5a4.251,4.251,0,0,1,.6-1.86,6.352,6.352,0,0,0,.26-1.66,11.193,11.193,0,0,0,.24-1.821c-.061-.64-.4-2.06-1.181-2.06-.86,0-2.08,1.74-2.16,2a13.262,13.262,0,0,0-.82,1.8,4.184,4.184,0,0,1-.26.98,5.544,5.544,0,0,0-.4,1.78c-.06.68-.42.86-1.161.86-.3,0-.4-.2-.4-.44a1.311,1.311,0,0,1,.16-.62,7.4,7.4,0,0,0,.4-1.74,13.79,13.79,0,0,0,.139-2.881c0-.94-.12-2.181-.86-2.381-.98.08-1.22,1.021-1.82,1.62a5.866,5.866,0,0,0-.6,1.341,18.481,18.481,0,0,0-1,3.541,1.861,1.861,0,0,1-.319.7c0,1.08-.4,1.44-1.141,1.54-.22,0-.24-.48-.24-.72,0-1.02.261-1.861.261-2.941,0-.92-.04-1.24-.04-2.16,0-.34.019-.681.019-1.02,0-.36-.14-.9-.14-1.4,0-.439.32-1.12.821-1.12a1.449,1.449,0,0,1,.66.54C511.38,116.077,510.979,116.257,510.979,116.818Z"/><path d="M532.621,115.057c0,1.541-.66,3.481-.66,5.222,0,.38-.2.559-.2.86,0,.6.16.819.16,1.84,0,.6-.1,1.221-.6,1.221-.6,0-.7-.54-.7-1.041,0-.7.181-1.361.181-2.06a2.541,2.541,0,0,0-.021-.4c-.52.019-.759.9-1,1.259a14.923,14.923,0,0,1-1.56,1.821,4.414,4.414,0,0,1-2.6,1.121c-.84,0-1.24-.62-1.24-1.5a29.12,29.12,0,0,1,.42-3.62c.12-.921.261-1.822.42-2.742.12-.639-.08-1.46.48-1.919.361.019.821.24.821.62,0,.5-.34,1.059-.34,1.54,0,.96-.341,1.841-.381,2.78-.04.881-.279,1.78-.279,2.681,0,.68.239.98.66.98.439,0,.939-.6,1.059-.6.381,0,.821-.541,1.1-.9a16.855,16.855,0,0,0,1.48-1.921c.26-.479.5-.96.8-1.42a5.6,5.6,0,0,0,.561-1.72l.46-1.84c.1-.381.12-1.061.679-1.061A1.06,1.06,0,0,1,532.621,115.057Z"/><path d="M536.479,117.278c0,.34.04.7.04,1.06,0,.2-.02.4-.04.6-.18,1.08-.12,2.181-.34,3.261a1.712,1.712,0,0,0-.04.44c0,.34.06.66.06,1.021,0,.5-.6.62-.94.6-.24-.019-.361-.42-.361-.68a5.35,5.35,0,0,1,.141-1.1,1.9,1.9,0,0,0,.02-.481,4.918,4.918,0,0,1,.08-.78l.139-1a1.346,1.346,0,0,0,.021-.28c0-.22-.021-.42-.021-.64,0-.3.04-.6.04-.9,0-.24-.019-.5-.019-.76,0-1.641.28-3.2.44-4.821.04-.54.1-1.66.72-1.66a.821.821,0,0,1,.78.639A22.254,22.254,0,0,0,536.479,117.278Z"/><path d="M545.66,124.78a3.288,3.288,0,0,1-.08-.761c0-1.28.279-2.46.279-3.761-.4.42-.759,1.1-1.219,1.3-.14.06-.42.46-.58.58a10.216,10.216,0,0,1-1.26,1.08,4.3,4.3,0,0,1-2.181.86c-1.5,0-1.8-.82-1.8-1.92a6.6,6.6,0,0,1,.981-3.181,2.579,2.579,0,0,0,.26-.52c.08-.28.22-.28.4-.5a7.376,7.376,0,0,1,1.1-1.259c.219-.18.439-.521.66-.621.34-.16.62-.379.96-.56.239-.12.5-.06.719-.26a3.605,3.605,0,0,1,1.08-.28,11.676,11.676,0,0,0,1.421.12c.28,0,.2-.8.661-.8.339,0,.58.48.58.74a2.169,2.169,0,0,1-.1.56,13.712,13.712,0,0,0-.36,2.5c0,.18.02.34.02.52,0,1.24-.28,2.8-.28,3.681,0,.2-.06.38-.06.56,0,.6.12,1,.12,1.7,0,.341-.4.221-.52.3-.1.08-.18.179-.26.179-.12,0-.28-.139-.421-.2Zm-3.461-7.342a8.922,8.922,0,0,0-1.24,1.46A5.073,5.073,0,0,0,539.9,122c0,.54.2.961.781.961.6,0,.98-.36,1.48-.541.9-.319,1.6-1.42,2.361-2.08.259-.219.4-.24.5-.6a6.046,6.046,0,0,1,.62-1.121,4.639,4.639,0,0,0,.52-2.06c0-.341-1.2-.421-1.74-.341A6.209,6.209,0,0,0,542.2,117.438Z"/><path class="e" d="M310.243,231.183c-4.828-18.408-.012-29.412,4.007-34.9"/><path class="f" d="M318.422,191.923a30.23,30.23,0,0,0-2.355,9.494l-2.3-4.5-4.65-1.987A30.171,30.171,0,0,0,318.422,191.923Z"/></svg>